<?xml version="1.0" encoding="UTF-8"?>
<svg version="1.1" xmlns="http://www.w3.org/2000/svg" width="904" height="638">
<path d="M0 0 C298.32 0 596.64 0 904 0 C904 210.54 904 421.08 904 638 C605.68 638 307.36 638 0 638 C0 427.46 0 216.92 0 0 Z " fill="#FEFEFE" transform="translate(0,0)"/>
<path d="M0 0 C159.72 0 319.44 0 484 0 C484 62.37 484 124.74 484 189 C324.28 189 164.56 189 0 189 C0 126.63 0 64.26 0 0 Z " fill="#DBDCDD" transform="translate(0,0)"/>
<path d="M0 0 C1.00455734 0.001138 2.00911469 0.002276 3.04411316 0.00344849 C6.34206372 0.01297181 9.63883441 0.05227803 12.93652344 0.09399414 C15.24663529 0.11122944 17.55675553 0.12737064 19.86688232 0.14247131 C24.70201994 0.17894851 29.53670589 0.23053664 34.37158203 0.29248047 C40.53896262 0.37002822 46.70581126 0.40722835 52.87360001 0.43259335 C57.64390675 0.45722737 62.41377791 0.50497189 67.18383026 0.55932808 C69.45613141 0.58222555 71.72851993 0.59777152 74.00092316 0.60554314 C90.1324881 0.67683999 102.78175355 1.57529203 115.54589844 12.44165039 C116.39152344 13.01915039 117.23714844 13.59665039 118.10839844 14.19165039 C125.87094682 21.35707967 133.04977553 33.11345607 133.69116211 43.88012695 C133.71584299 46.81741772 133.73155565 49.75424811 133.73339844 52.69165039 C133.74564453 53.70356445 133.75789063 54.71547852 133.77050781 55.75805664 C133.7967649 69.25420208 129.43056766 81.41086864 120.00683594 91.34008789 C106.78319955 102.63265357 92.97373068 104.90178177 76.16308594 104.73461914 C74.49586369 104.72901356 72.82863646 104.72474801 71.16140747 104.72175598 C66.80482991 104.71038287 62.4485595 104.68098198 58.09210205 104.64764404 C53.63403476 104.61677932 49.17591712 104.60321583 44.71777344 104.58813477 C35.99367524 104.55610387 27.26982521 104.50500049 18.54589844 104.44165039 C19.66346868 100.94978695 20.8297995 97.62494184 22.49121094 94.35571289 C22.84570312 93.65317383 23.20019531 92.95063477 23.56542969 92.22680664 C23.93023437 91.51395508 24.29503906 90.80110352 24.67089844 90.06665039 C25.0434375 89.3305957 25.41597656 88.59454102 25.79980469 87.83618164 C26.71151064 86.03614681 27.62819776 84.23863637 28.54589844 82.44165039 C29.33801727 82.44022537 30.13013611 82.43880035 30.94625854 82.43733215 C38.44870567 82.41942679 45.95047294 82.37759241 53.45261955 82.30955982 C57.30865983 82.27541731 61.16430929 82.25019991 65.02050781 82.24609375 C68.74915545 82.24178309 72.47692341 82.21309533 76.20529556 82.16821861 C77.62043234 82.15533109 79.03567487 82.15090461 80.45086288 82.1554966 C89.13699985 82.17709627 96.33196594 81.646695 103.54589844 76.44165039 C110.17194562 69.77061751 112.64597722 62.27779164 112.98339844 53.00415039 C112.74884739 44.26457433 110.10952828 37.30639331 104.11621094 30.90649414 C97.8367593 25.04879672 91.60530344 23.21043314 83.16357422 23.12280273 C82.45068741 23.11275711 81.7378006 23.10271149 81.00331116 23.09236145 C78.66595201 23.06167027 76.32870666 23.04453394 73.99121094 23.02758789 C72.36309846 23.00886488 70.73499556 22.98929063 69.10690308 22.96890259 C64.83595445 22.91769494 60.56497441 22.87800861 56.29388428 22.84075928 C51.929894 22.80064814 47.56603315 22.74958831 43.20214844 22.69946289 C34.6501537 22.60283828 26.09809461 22.5183907 17.54589844 22.44165039 C17.25328125 21.47614258 16.96066406 20.51063477 16.65917969 19.51586914 C15.87874438 16.40072252 15.87874438 16.40072252 13.73339844 15.25415039 C13.01152344 14.98602539 12.28964844 14.71790039 11.54589844 14.44165039 C10.86527344 13.90540039 10.18464844 13.36915039 9.48339844 12.81665039 C4.34673313 10.41225386 -1.26147314 10.55881923 -6.70019531 12.06274414 C-12.94049848 14.79971922 -17.67718817 19.64208027 -20.55566406 25.79711914 C-22.61568865 31.85205124 -23.36260229 38.0921288 -22.45410156 44.44165039 C-20.49531226 48.359229 -18.36082045 51.37977098 -14.45410156 53.44165039 C-8.94654284 54.81854007 -5.31031941 54.79200088 -0.34472656 51.91821289 C5.39507342 47.43547654 7.72268428 41.92697951 8.92089844 34.87915039 C9.12714844 33.08477539 9.33339844 31.29040039 9.54589844 29.44165039 C13.83589844 29.44165039 18.12589844 29.44165039 22.54589844 29.44165039 C23.28330373 39.02791921 20.3928524 48.24458498 14.24902344 55.69165039 C8.634568 61.46063212 3.05133417 65.11744972 -5.14550781 65.70727539 C-6.42296875 65.70211914 -7.70042969 65.69696289 -9.01660156 65.69165039 C-10.29664063 65.69680664 -11.57667969 65.70196289 -12.89550781 65.70727539 C-16.45410156 65.44165039 -16.45410156 65.44165039 -18.59918213 64.44200134 C-22.64658661 63.02380898 -26.4324446 63.15784838 -30.69140625 63.17041016 C-31.61402252 63.16518341 -32.53663879 63.15995667 -33.48721313 63.15457153 C-35.48694919 63.14434581 -37.48671175 63.13855362 -39.48647308 63.13669014 C-42.65673684 63.13302104 -45.82668929 63.11627804 -48.99688721 63.09593201 C-58.00925901 63.04058031 -67.0216769 63.00988153 -76.03417969 62.98535156 C-81.55137344 62.96943136 -87.06834699 62.93916318 -92.58542633 62.90058708 C-94.68244327 62.88897405 -96.77949968 62.88300706 -98.87654877 62.88290596 C-101.81767095 62.8827128 -104.75819067 62.86436461 -107.69921875 62.84228516 C-108.98540604 62.84915092 -108.98540604 62.84915092 -110.2975769 62.8561554 C-119.92050253 62.74194731 -128.06281716 59.62193339 -135.45410156 53.44165039 C-141.65364664 46.79638639 -145.20906915 39.61432943 -144.93066406 30.41430664 C-143.54229431 21.75406581 -138.47626547 13.65507511 -131.45410156 8.44165039 C-123.59051837 3.5269109 -117.90960891 1.28278034 -108.65625 1.328125 C-107.87538025 1.32797897 -107.0945105 1.32783295 -106.28997803 1.3276825 C-103.71444907 1.32837797 -101.13899285 1.33615327 -98.56347656 1.34399414 C-96.77557413 1.34585962 -94.98767119 1.34728291 -93.19976807 1.34828186 C-88.49799179 1.35209682 -83.79624648 1.36191841 -79.09448242 1.37298584 C-74.2950889 1.3832219 -69.49569036 1.38778419 -64.69628906 1.39282227 C-55.28221297 1.40354158 -45.86815984 1.42060576 -36.45410156 1.44165039 C-37.41174811 4.00440892 -38.37019516 6.56686328 -39.32910156 9.12915039 C-39.59851563 9.85038086 -39.86792969 10.57161133 -40.14550781 11.31469727 C-41.54078759 15.04111522 -42.95613073 18.75489694 -44.45410156 22.44165039 C-45.7904792 22.44378792 -45.7904792 22.44378792 -47.15385437 22.44596863 C-55.55547704 22.46380803 -63.95657346 22.50544923 -72.35794353 22.57374096 C-76.67709466 22.60801256 -80.99589202 22.63312114 -85.31518555 22.63720703 C-89.48467635 22.64148972 -93.65336913 22.6699489 -97.82261086 22.71508217 C-99.41214154 22.72805831 -101.00176773 22.7323644 -102.59134483 22.72780418 C-104.82080304 22.72289847 -107.04792847 22.74898276 -109.27709961 22.78222656 C-110.54506882 22.7888884 -111.81303802 22.79555023 -113.11943054 22.80241394 C-117.34726265 23.61286402 -118.83972692 25.08196666 -121.45410156 28.44165039 C-122.06510806 32.31135822 -122.20250492 34.38328096 -119.91204834 37.62237549 C-116.55472272 40.107335 -113.58440488 40.01476423 -109.56445312 39.98754883 C-108.37851814 40.00305534 -108.37851814 40.00305534 -107.16862488 40.01887512 C-104.56045146 40.04832681 -101.95305327 40.04980275 -99.34472656 40.05102539 C-97.5343884 40.06600549 -95.72406392 40.08273227 -93.91375732 40.10113525 C-89.15280534 40.14484031 -84.39203771 40.16481482 -79.63092041 40.17987061 C-74.7710885 40.19943033 -69.91145603 40.24140161 -65.05175781 40.28149414 C-55.5192672 40.3568304 -45.98682114 40.40710118 -36.45410156 40.44165039 C-36.45926788 39.82345932 -36.4644342 39.20526825 -36.46975708 38.56834412 C-36.47578445 37.3521212 -36.47578445 37.3521212 -36.48193359 36.11132812 C-36.48709991 35.30751205 -36.49226624 34.50369598 -36.49758911 33.67552185 C-36.32351446 24.73364275 -31.49306809 15.89814721 -25.60253906 9.39868164 C-17.98466293 2.28158223 -10.30024699 -0.1760225 0 0 Z " fill="#16274A" transform="translate(240.4541015625,12.558349609375)"/>
<path d="M0 0 C7.26 0 14.52 0 22 0 C23.32 2.97 24.64 5.94 26 9 C29.98715541 12.82766919 32.60983072 15.11862309 38.1104126 15.14044189 C38.97114883 15.14615204 39.83188507 15.15186218 40.71870422 15.15774536 C42.13846809 15.15942215 42.13846809 15.15942215 43.58691406 15.16113281 C45.07982216 15.16858017 45.07982216 15.16858017 46.60289001 15.17617798 C49.90714196 15.19082492 53.21134587 15.19760638 56.515625 15.203125 C58.80767824 15.20887506 61.09973146 15.21463281 63.39178467 15.22039795 C68.20373764 15.23091562 73.01567386 15.23675304 77.82763672 15.24023438 C83.99260098 15.24571588 90.15734401 15.26973351 96.32223892 15.29820633 C101.0594548 15.31683524 105.79661747 15.32203849 110.53386688 15.32357025 C112.80644691 15.32659753 115.07902599 15.33462854 117.35157013 15.34775543 C120.53305337 15.36481827 123.71399732 15.3629347 126.89550781 15.35644531 C128.3031263 15.37026749 128.3031263 15.37026749 129.73918152 15.3843689 C134.90685258 15.35136541 138.55136324 14.93166991 143 12 C146.20934174 7.98832282 147.33029718 5.00910847 149 0 C156.59 0 164.18 0 172 0 C169.42266117 12.88669413 165.07733317 23.06012762 153.9375 30.625 C141.03367998 39.09499588 127.75803799 38.59444102 112.90234375 38.53125 C110.65897962 38.53394939 108.41561663 38.53783551 106.17225647 38.54284668 C101.48801449 38.54871944 96.80407917 38.5402497 92.11987305 38.52148438 C86.13938234 38.49868333 80.15960937 38.51183996 74.17914486 38.53577423 C69.55235968 38.55028101 64.92574255 38.54560405 60.2989521 38.53526306 C58.09471106 38.53260995 55.89045436 38.53581523 53.68623161 38.54518127 C35.74649675 38.60470351 23.57420252 36.67883968 9.9296875 24.08984375 C3.22297345 17.02021227 0 9.72314412 0 0 Z " fill="#17294B" transform="translate(94,79)"/>
<path d="M0 0 C5.94 0 11.88 0 18 0 C18 1.65 18 3.3 18 5 C13.71 5 9.42 5 5 5 C5 6.32 5 7.64 5 9 C8.96 9 12.92 9 17 9 C17 10.32 17 11.64 17 13 C13.04 13 9.08 13 5 13 C5 14.32 5 15.64 5 17 C9.62 17 14.24 17 19 17 C19.06058594 15.85660156 19.12117188 14.71320313 19.18359375 13.53515625 C19.26798428 12.04425695 19.35263302 10.55337225 19.4375 9.0625 C19.47681641 8.30775391 19.51613281 7.55300781 19.55664062 6.77539062 C19.88671875 1.11328125 19.88671875 1.11328125 21 0 C23.43212772 -0.15423249 25.81635567 -0.23166746 28.25 -0.25 C29.25353516 -0.2809375 29.25353516 -0.2809375 30.27734375 -0.3125 C34.6954474 -0.34721987 37.55511677 0.17674984 41 3 C42 6.5 42 6.5 42 10 C40.5625 11.9375 40.5625 11.9375 39 13 C39.66 14.98 40.32 16.96 41 19 C41.66 19 42.32 19 43 19 C43 19.66 43 20.32 43 21 C41.02 21 39.04 21 37 21 C36.34 19.35 35.68 17.7 35 16 C34.01 16.33 33.02 16.66 32 17 C29.3125 16.5625 29.3125 16.5625 27 16 C27.103125 16.928125 27.20625 17.85625 27.3125 18.8125 C27.209375 19.864375 27.10625 20.91625 27 22 C24.5 23.875 24.5 23.875 22 25 C22.74765625 24.98839844 23.4953125 24.97679687 24.265625 24.96484375 C25.25046875 24.95582031 26.2353125 24.94679687 27.25 24.9375 C28.71179688 24.92009766 28.71179688 24.92009766 30.203125 24.90234375 C33 25 33 25 37 26 C37 29.3 37 32.6 37 36 C39.31 36 41.62 36 44 36 C44 36.99 44 37.98 44 39 C35.75 39 27.5 39 19 39 C18.67 38.34 18.34 37.68 18 37 C17.484375 37.350625 16.96875 37.70125 16.4375 38.0625 C13.05993333 39.3615641 10.49531943 38.67217681 7 38 C6.505 36.515 6.505 36.515 6 35 C8.64 35.33 11.28 35.66 14 36 C14 35.34 14 34.68 14 34 C11.69 33.67 9.38 33.34 7 33 C4.91792929 28.59090909 4.91792929 28.59090909 5.3125 25.75 C6 24 6 24 7 23 C4.69 22.67 2.38 22.34 0 22 C0 14.74 0 7.48 0 0 Z " fill="#CACDCF" transform="translate(325,130)"/>
<path d="M0 0 C1.8871875 0.0309375 1.8871875 0.0309375 3.8125 0.0625 C4.3075 1.0525 4.3075 1.0525 4.8125 2.0625 C4.22082031 2.08828125 3.62914062 2.1140625 3.01953125 2.140625 C-2.23731899 2.51795193 -5.36498357 3.12052993 -9.1875 7.0625 C-10.71964888 10.12679776 -10.41688548 12.6790642 -10.1875 16.0625 C-8.93510366 18.88039177 -7.94539131 20.52114906 -5.4375 22.3125 C-2.39445726 23.32684758 0.63348958 23.69569111 3.8125 24.0625 C4.3075 25.5475 4.3075 25.5475 4.8125 27.0625 C7.16421131 26.46388258 9.4984378 25.79325648 11.8125 25.0625 C12.1425 24.4025 12.4725 23.7425 12.8125 23.0625 C14.4625 23.0625 16.1125 23.0625 17.8125 23.0625 C18.1425 22.4025 18.4725 21.7425 18.8125 21.0625 C18.8125 21.7225 18.8125 22.3825 18.8125 23.0625 C20.4625 23.0625 22.1125 23.0625 23.8125 23.0625 C23.8125 23.7225 23.8125 24.3825 23.8125 25.0625 C23.1525 25.0625 22.4925 25.0625 21.8125 25.0625 C21.8125 26.0525 21.8125 27.0425 21.8125 28.0625 C18.8425 28.3925 15.8725 28.7225 12.8125 29.0625 C12.4825 32.6925 12.1525 36.3225 11.8125 40.0625 C11.4825 40.0625 11.1525 40.0625 10.8125 40.0625 C10.3175 36.5975 10.3175 36.5975 9.8125 33.0625 C9.1525 35.3725 8.4925 37.6825 7.8125 40.0625 C7.4825 40.0625 7.1525 40.0625 6.8125 40.0625 C6.8125 37.0925 6.8125 34.1225 6.8125 31.0625 C8.1325 31.0625 9.4525 31.0625 10.8125 31.0625 C10.8125 30.0725 10.8125 29.0825 10.8125 28.0625 C8.99924449 28.17601517 7.18686643 28.30362961 5.375 28.4375 C4.36566406 28.50710937 3.35632813 28.57671875 2.31640625 28.6484375 C1.49011719 28.78507812 0.66382813 28.92171875 -0.1875 29.0625 C-0.5175 29.7225 -0.8475 30.3825 -1.1875 31.0625 C0.1325 31.0625 1.4525 31.0625 2.8125 31.0625 C2.8125 34.0325 2.8125 37.0025 2.8125 40.0625 C2.4825 40.0625 2.1525 40.0625 1.8125 40.0625 C1.3175 36.5975 1.3175 36.5975 0.8125 33.0625 C-0.074375 33.248125 -0.96125 33.43375 -1.875 33.625 C-5.03928811 34.04292484 -7.13589642 33.87027742 -10.1875 33.0625 C-10.1875 32.4025 -10.1875 31.7425 -10.1875 31.0625 C-7.8775 31.3925 -5.5675 31.7225 -3.1875 32.0625 C-4.96239599 29.82052612 -5.80925489 29.11923677 -8.6875 28.6875 C-11.56574511 29.11923677 -12.41260401 29.82052612 -14.1875 32.0625 C-14.8475 31.7325 -15.5075 31.4025 -16.1875 31.0625 C-15.5275 30.0725 -14.8675 29.0825 -14.1875 28.0625 C-17.07187779 29.35549694 -19.05969421 30.72191363 -21.1875 33.0625 C-21.54457031 32.40765625 -21.90164063 31.7528125 -22.26953125 31.078125 C-24.09049431 28.73815396 -24.09049431 28.73815396 -27.32421875 28.671875 C-29.08185547 28.74148437 -29.08185547 28.74148437 -30.875 28.8125 C-32.05449219 28.84859375 -33.23398438 28.8846875 -34.44921875 28.921875 C-35.80466797 28.99148437 -35.80466797 28.99148437 -37.1875 29.0625 C-38.18967064 32.64577753 -38.18967064 32.64577753 -37.1875 36.0625 C-38.1775 36.0625 -39.1675 36.0625 -40.1875 36.0625 C-40.3125 32.6875 -40.3125 32.6875 -40.1875 29.0625 C-37.6220406 26.4970406 -35.71063332 26.52203913 -32.1875 26.0625 C-32.1875 25.4025 -32.1875 24.7425 -32.1875 24.0625 C-30.8675 24.0625 -29.5475 24.0625 -28.1875 24.0625 C-28.1875 21.7525 -28.1875 19.4425 -28.1875 17.0625 C-27.43984375 17.02511719 -26.6921875 16.98773438 -25.921875 16.94921875 C-24.93703125 16.88347656 -23.9521875 16.81773437 -22.9375 16.75 C-21.96296875 16.69199219 -20.9884375 16.63398438 -19.984375 16.57421875 C-16.88657369 16.00744225 -15.42318978 15.25640119 -13.1875 13.0625 C-12.52069632 10.10529372 -12.52069632 10.10529372 -13.1875 7.0625 C-15.06251931 4.68530307 -15.06251931 4.68530307 -17.1875 3.0625 C-16.8575 2.4025 -16.5275 1.7425 -16.1875 1.0625 C-15.56875 1.5575 -14.95 2.0525 -14.3125 2.5625 C-12.34869096 4.25472773 -12.34869096 4.25472773 -10.1875 4.0625 C-9.713125 3.588125 -9.23875 3.11375 -8.75 2.625 C-6.13016183 0.00516183 -3.51267065 -0.05758476 0 0 Z " fill="#EDEFF1" transform="translate(283.1875,127.9375)"/>
<path d="M0 0 C3.526875 -0.12375 3.526875 -0.12375 7.125 -0.25 C7.85348145 -0.28641602 8.58196289 -0.32283203 9.33251953 -0.36035156 C14.40559695 -0.44565962 17.09510429 0.87144854 21 4 C23 6 23 6 23.3125 9.8125 C23.2156365 13.62477054 22.41508052 15.9587875 20 19 C16.95318939 21.03120707 16.39881676 21.24659875 12.98828125 21.1953125 C12.30548096 21.19031738 11.62268066 21.18532227 10.91918945 21.18017578 C10.05898193 21.16196777 9.19877441 21.14375977 8.3125 21.125 C4.1978125 21.063125 4.1978125 21.063125 0 21 C0 14.07 0 7.14 0 0 Z " fill="#212E51" transform="translate(159,130)"/>
<path d="M0 0 C3.526875 -0.12375 3.526875 -0.12375 7.125 -0.25 C7.85348145 -0.28641602 8.58196289 -0.32283203 9.33251953 -0.36035156 C14.40007317 -0.44556673 17.13527027 0.81188467 21 4 C23.51250583 7.76875875 23.53016086 9.53150134 23 14 C20.98670074 17.47681295 18.88463861 19.70512046 15 21 C12.42502932 21.07035439 9.88550071 21.0934934 7.3125 21.0625 C3.6928125 21.0315625 3.6928125 21.0315625 0 21 C0 14.07 0 7.14 0 0 Z " fill="#1E2C51" transform="translate(185,130)"/>
<path d="M0 0 C3.14344435 1.74635797 5.46862726 3.46862726 8 6 C8.43332499 11.28656491 8.50513984 14.74375877 5 19 C0.58819287 21.7083328 -3.9692707 21.82217421 -9 21 C-11.82424288 18.80977082 -13.41508603 17.16982793 -15 14 C-15.67660495 8.13609041 -15.67660495 8.13609041 -13.953125 5.2421875 C-9.81778549 0.20680351 -6.41516566 -0.89430748 0 0 Z " fill="#162347" transform="translate(287,130)"/>
<path d="M0 0 C3.5578125 -0.0928125 3.5578125 -0.0928125 7.1875 -0.1875 C8.29387817 -0.22846802 8.29387817 -0.22846802 9.42260742 -0.27026367 C13.81047671 -0.32537128 16.59113426 0.19458695 20 3 C21 6.5 21 6.5 21 10 C19.5625 11.9375 19.5625 11.9375 18 13 C18.66 14.98 19.32 16.96 20 19 C20.66 19 21.32 19 22 19 C22 19.66 22 20.32 22 21 C19.1875 21.3125 19.1875 21.3125 16 21 C15.54625 20.195625 15.0925 19.39125 14.625 18.5625 C13.30499266 15.85159954 13.30499266 15.85159954 11.04296875 15.4453125 C9.03654272 15.21339636 7.01734656 15.09921377 5 15 C5 16.98 5 18.96 5 21 C3.35 21 1.7 21 0 21 C0 14.07 0 7.14 0 0 Z " fill="#25314F" transform="translate(346,130)"/>
<path d="M0 0 C1.32 0 2.64 0 4 0 C4.66 2.97 5.32 5.94 6 9 C6.66 9 7.32 9 8 9 C8.66 6.03 9.32 3.06 10 0 C11.65 0 13.3 0 15 0 C15.99 2.31 16.98 4.62 18 7 C18.33 7 18.66 7 19 7 C19.66 4.69 20.32 2.38 21 0 C22.65 0 24.3 0 26 0 C24.56390017 6.73862227 22.85991713 13.36629557 21 20 C19.35 19.67 17.7 19.34 16 19 C15.01 16.03 14.02 13.06 13 10 C11.68 13.3 10.36 16.6 9 20 C7.68 20 6.36 20 5 20 C4.15960114 17.41877492 3.32749444 14.83536099 2.5 12.25 C2.26152344 11.52039063 2.02304687 10.79078125 1.77734375 10.0390625 C1.55175781 9.33007812 1.32617188 8.62109375 1.09375 7.890625 C0.88427734 7.24125977 0.67480469 6.59189453 0.45898438 5.92285156 C0 4 0 4 0 0 Z " fill="#1C294F" transform="translate(297,131)"/>
<path d="M0 0 C2.7225 -0.0825 5.445 -0.165 8.25 -0.25 C9.10110352 -0.28641602 9.95220703 -0.32283203 10.82910156 -0.36035156 C14.55932825 -0.41512988 16.4192736 -0.42267489 19.51171875 1.828125 C21 4 21 4 21.5625 7 C21 10 21 10 19.1875 12.375 C14.51397764 14.75758003 10.14832988 14.32458822 5 14 C5 15.98 5 17.96 5 20 C3.35 20 1.7 20 0 20 C0 13.4 0 6.8 0 0 Z " fill="#283452" transform="translate(250,131)"/>
<path d="M0 0 C1.40765625 -0.01160156 1.40765625 -0.01160156 2.84375 -0.0234375 C5.91218355 0.43682753 7.320274 1.18499227 9.5 3.375 C9.5 4.365 9.5 5.355 9.5 6.375 C7.83388095 6.417721 6.16617115 6.41563832 4.5 6.375 C4.17 6.045 3.84 5.715 3.5 5.375 C0.82941149 5.23384839 -1.82432238 5.33252893 -4.5 5.375 C-4.5 6.035 -4.5 6.695 -4.5 7.375 C-3.84773438 7.40078125 -3.19546875 7.4265625 -2.5234375 7.453125 C3.27168479 7.82920963 7.20511379 8.30616043 11.5 12.375 C12.1875 14.875 12.1875 14.875 11.5 17.375 C6.91483947 21.83623727 2.91126949 22.73066594 -3.2734375 22.66015625 C-6.63576521 22.22954235 -8.28380088 20.86822401 -10.5 18.375 C-11.3125 16.125 -11.3125 16.125 -11.5 14.375 C-9.125 14.25 -9.125 14.25 -6.5 14.375 C-5.84 15.035 -5.18 15.695 -4.5 16.375 C-2.28927023 16.61753813 -2.28927023 16.61753813 0.125 16.5 C0.94226563 16.48195312 1.75953125 16.46390625 2.6015625 16.4453125 C3.54128906 16.41050781 3.54128906 16.41050781 4.5 16.375 C4.5 15.715 4.5 15.055 4.5 14.375 C3.75234375 14.27703125 3.0046875 14.1790625 2.234375 14.078125 C-5.75686137 12.86479592 -5.75686137 12.86479592 -9.25 10.5625 C-10.5 8.375 -10.5 8.375 -10.5 5.8125 C-8.46567986 0.85384466 -5.07905906 -0.04186038 0 0 Z " fill="#25344D" transform="translate(107.5,129.625)"/>
<path d="M0 0 C5.94 0 11.88 0 18 0 C18 1.65 18 3.3 18 5 C13.71 5 9.42 5 5 5 C5 6.32 5 7.64 5 9 C8.96 9 12.92 9 17 9 C17 10.32 17 11.64 17 13 C13.04 13 9.08 13 5 13 C5 14.32 5 15.64 5 17 C9.29 17 13.58 17 18 17 C18 18.32 18 19.64 18 21 C12.06 21 6.12 21 0 21 C0 14.07 0 7.14 0 0 Z " fill="#1E2A4D" transform="translate(325,130)"/>
<path d="M0 0 C2.68550347 1.03651011 3.84908946 1.96229528 6 4 C6.875 6.25 6.875 6.25 7 8 C5.02 8 3.04 8 1 8 C0.67 7.34 0.34 6.68 0 6 C-2.01927253 5.45537858 -2.01927253 5.45537858 -4.375 5.25 C-5.16648438 5.15203125 -5.95796875 5.0540625 -6.7734375 4.953125 C-9.29195501 4.80675687 -9.29195501 4.80675687 -12 7 C-12.41666667 10.5 -12.41666667 10.5 -12 14 C-9.39295102 16.60704898 -7.52661759 16.23905333 -3.97265625 16.265625 C-1.68047674 16.10382514 -1.68047674 16.10382514 1 14 C4.1875 13.875 4.1875 13.875 7 14 C5.60415208 17.37329915 4.07634389 19.04232662 1 21 C-2.72400871 22.24133624 -6.13176 22.54111486 -10 22 C-13.75212276 19.98497111 -15.63644095 18.54533858 -18 15 C-18.83818277 11.10578801 -18.94580461 7.54084725 -16.8203125 4.078125 C-11.97161714 -0.79376986 -6.56623174 -1.16513586 0 0 Z " fill="#16244A" transform="translate(228,130)"/>
<path d="M0 0 C3.27551317 1.43303701 5.71786076 3.23741039 8 6 C8 6.66 8 7.32 8 8 C2.48563969 8.37597911 2.48563969 8.37597911 0.0625 6.5 C-2.99380579 4.27723215 -5.3263842 4.59924191 -9 5 C-11.14780077 5.89757556 -11.14780077 5.89757556 -12 8 C-11.92421045 11.61462786 -11.92421045 11.61462786 -11 15 C-8.77109005 16.11445498 -7.46944894 16.16480286 -5 16.1875 C-3.948125 16.20876953 -3.948125 16.20876953 -2.875 16.23046875 C-0.75475062 16.16512323 -0.75475062 16.16512323 1 14 C4.125 13.875 4.125 13.875 7 14 C6.8125 15.8125 6.8125 15.8125 6 18 C0.49739139 22.11943924 -5.39333708 21.94017895 -12 21 C-14.51606438 19.57320739 -15.33342717 18.44033879 -17 16 C-17.33 15.67 -17.66 15.34 -18 15 C-18.69087003 8.20644468 -18.69087003 8.20644468 -16.953125 5.171875 C-11.98848805 -0.84409683 -7.40708617 -0.61100421 0 0 Z " fill="#1E2A4B" transform="translate(138,130)"/>
<path d="M0 0 C0 3.3 0 6.6 0 10 C2.31 10 4.62 10 7 10 C7 10.99 7 11.98 7 13 C-1.25 13 -9.5 13 -18 13 C-18 1 -18 1 -17 0 C-11.15719588 -1.15066164 -5.8446349 -0.9563948 0 0 Z " fill="#B2B8BF" transform="translate(362,156)"/>
<path d="M0 0 C4.50343911 0.5112012 6.87525426 2.17521358 10.3125 5.0625 C11.19550781 5.79597656 12.07851562 6.52945313 12.98828125 7.28515625 C13.98408203 8.13400391 13.98408203 8.13400391 15 9 C13.61469424 13.15591729 10.76632662 14.17786565 7.125 16.1875 C6.48691406 16.55552734 5.84882813 16.92355469 5.19140625 17.30273438 C0.39737941 20 0.39737941 20 -3 20 C-2.22095672 6.3667426 -2.22095672 6.3667426 0 0 Z " fill="#192849" transform="translate(227,39)"/>
<path d="M0 0 C0.33 0.66 0.66 1.32 1 2 C2.65 2 4.3 2 6 2 C6 2.66 6 3.32 6 4 C5.34 4 4.68 4 4 4 C4 4.99 4 5.98 4 7 C-0.455 7.495 -0.455 7.495 -5 8 C-5.33 11.63 -5.66 15.26 -6 19 C-6.33 19 -6.66 19 -7 19 C-7.33 16.69 -7.66 14.38 -8 12 C-8.66 14.31 -9.32 16.62 -10 19 C-10.33 19 -10.66 19 -11 19 C-11 16.03 -11 13.06 -11 10 C-9.68 10 -8.36 10 -7 10 C-7 9.01 -7 8.02 -7 7 C-8.81325551 7.11351517 -10.62563357 7.24112961 -12.4375 7.375 C-13.44683594 7.44460937 -14.45617187 7.51421875 -15.49609375 7.5859375 C-16.32238281 7.72257813 -17.14867187 7.85921875 -18 8 C-18.33 8.66 -18.66 9.32 -19 10 C-17.68 10 -16.36 10 -15 10 C-15 12.97 -15 15.94 -15 19 C-15.33 19 -15.66 19 -16 19 C-16.33 16.69 -16.66 14.38 -17 12 C-18.3303125 12.2784375 -18.3303125 12.2784375 -19.6875 12.5625 C-22.85178811 12.98042484 -24.94839642 12.80777742 -28 12 C-28 11.34 -28 10.68 -28 10 C-25.69 10.33 -23.38 10.66 -21 11 C-21.99 9.68 -22.98 8.36 -24 7 C-22.35 7 -20.7 7 -19 7 C-19 6.34 -19 5.68 -19 5 C-17.02 4.67 -15.04 4.34 -13 4 C-13 4.66 -13 5.32 -13 6 C-10.64828869 5.40138258 -8.3140622 4.73075648 -6 4 C-5.67 3.34 -5.34 2.68 -5 2 C-3.35 2 -1.7 2 0 2 C0 1.34 0 0.68 0 0 Z " fill="#DDE1E5" transform="translate(301,149)"/>
<path d="M0 0 C1.75570312 0.01353516 1.75570312 0.01353516 3.546875 0.02734375 C4.43890625 0.03894531 5.3309375 0.05054688 6.25 0.0625 C6.25 0.3925 6.25 0.7225 6.25 1.0625 C8.89 1.0625 11.53 1.0625 14.25 1.0625 C14.25 0.7325 14.25 0.4025 14.25 0.0625 C17.88 0.0625 21.51 0.0625 25.25 0.0625 C25.25 0.3925 25.25 0.7225 25.25 1.0625 C29.54 1.0625 33.83 1.0625 38.25 1.0625 C38.25 0.7325 38.25 0.4025 38.25 0.0625 C40.04093191 -0.01836147 41.83289628 -0.07662702 43.625 -0.125 C45.12160156 -0.17720703 45.12160156 -0.17720703 46.6484375 -0.23046875 C47.93621094 -0.08544922 47.93621094 -0.08544922 49.25 0.0625 C50.24 1.5475 50.24 1.5475 51.25 3.0625 C25.18 3.0625 -0.89 3.0625 -27.75 3.0625 C-27.75 2.7325 -27.75 2.4025 -27.75 2.0625 C-26.56921875 2.00191406 -25.3884375 1.94132812 -24.171875 1.87890625 C-22.6145723 1.79447418 -21.05728121 1.70982751 -19.5 1.625 C-18.72269531 1.58568359 -17.94539062 1.54636719 -17.14453125 1.50585938 C-16.39042969 1.46396484 -15.63632813 1.42207031 -14.859375 1.37890625 C-14.16811523 1.34224854 -13.47685547 1.30559082 -12.76464844 1.26782227 C-10.72626847 1.10856997 -10.72626847 1.10856997 -8.6953125 0.54882812 C-5.79284722 -0.1767882 -2.98308172 -0.02983082 0 0 Z " fill="#F4F9F9" transform="translate(152.75,49.9375)"/>
<path d="M0 0 C1.588125 -0.061875 3.17625 -0.12375 4.8125 -0.1875 C6.15248047 -0.23970703 6.15248047 -0.23970703 7.51953125 -0.29296875 C10 0 10 0 11.83203125 1.2890625 C13 3 13 3 12.875 6.5625 C12 10 12 10 9 12 C5.97670744 12.2610788 3.04123758 12.08815181 0 12 C0 8.04 0 4.08 0 0 Z " fill="#F5F7F8" transform="translate(164,135)"/>
<path d="M0 0 C1.588125 -0.061875 3.17625 -0.12375 4.8125 -0.1875 C6.15248047 -0.23970703 6.15248047 -0.23970703 7.51953125 -0.29296875 C10 0 10 0 11.796875 1.359375 C13 3 13 3 13.4375 5.4375 C13 8 13 8 11.5625 10.3125 C7.68376006 12.86679216 4.5868186 12.26981286 0 12 C0 8.04 0 4.08 0 0 Z " fill="#EEF1F4" transform="translate(190,135)"/>
<path d="M0 0 C1.19109375 0.00773438 1.19109375 0.00773438 2.40625 0.015625 C3.2003125 0.01046875 3.994375 0.0053125 4.8125 0 C6.90625 0.265625 6.90625 0.265625 8.90625 2.265625 C9.45212156 8.27021216 9.45212156 8.27021216 7.84375 11.203125 C4.78648824 12.8796879 2.3156212 12.63091477 -1.09375 12.265625 C-3.03125 11.203125 -3.03125 11.203125 -4.09375 9.265625 C-4.40625 5.703125 -4.40625 5.703125 -4.09375 2.265625 C-2.09375 0.265625 -2.09375 0.265625 0 0 Z " fill="#E7EAEE" transform="translate(281.09375,134.734375)"/>
<path d="M0 0 C1.40765625 -0.01160156 1.40765625 -0.01160156 2.84375 -0.0234375 C5.91218355 0.43682753 7.320274 1.18499227 9.5 3.375 C9.5 4.365 9.5 5.355 9.5 6.375 C7.83388095 6.417721 6.16617115 6.41563832 4.5 6.375 C4.17 6.045 3.84 5.715 3.5 5.375 C0.82941149 5.23384839 -1.82432238 5.33252893 -4.5 5.375 C-4.5 6.035 -4.5 6.695 -4.5 7.375 C-0.045 8.365 -0.045 8.365 4.5 9.375 C4.5 10.365 4.5 11.355 4.5 12.375 C-5.48956159 12.99504175 -5.48956159 12.99504175 -9.25 10.6875 C-10.5 8.375 -10.5 8.375 -10.5 5.8125 C-8.46567986 0.85384466 -5.07905906 -0.04186038 0 0 Z " fill="#172243" transform="translate(107.5,129.625)"/>
<path d="M0 0 C3.63 0.33 7.26 0.66 11 1 C10.01 1.33 9.02 1.66 8 2 C8 2.66 8 3.32 8 4 C10.31 4 12.62 4 15 4 C14.01 4.66 13.02 5.32 12 6 C11.41651248 8.6556728 11.41651248 8.6556728 11.3125 11.625 C11.24675781 12.62789062 11.18101563 13.63078125 11.11328125 14.6640625 C11.07589844 15.43492187 11.03851563 16.20578125 11 17 C10.67 16.34 10.34 15.68 10 15 C7.03 15 4.06 15 1 15 C1 14.34 1 13.68 1 13 C3.31 13 5.62 13 8 13 C8 12.01 8 11.02 8 10 C5.69 10 3.38 10 1 10 C1 9.34 1 8.68 1 8 C3.64 8 6.28 8 9 8 C9 7.01 9 6.02 9 5 C5.37 5 1.74 5 -2 5 C-2 9.29 -2 13.58 -2 18 C-2.66 18 -3.32 18 -4 18 C-4.10832169 15.91781638 -4.18573541 13.83400871 -4.25 11.75 C-4.29640625 10.58984375 -4.3428125 9.4296875 -4.390625 8.234375 C-3.92790489 4.40305252 -2.90879703 3.40491093 0 1 C0 0.67 0 0.34 0 0 Z " fill="#F6FAFB" transform="translate(99,151)"/>
<path d="M0 0 C6.12913259 -0.4226988 9.04691633 -0.00963916 14 4 C16 6 16 6 16.3125 9.8125 C16.20863423 13.62783587 15.47814152 15.99082815 13 19 C10.35582586 20.73523928 9.21534057 21 6 21 C6 20.34 6 19.68 6 19 C4.68 18.34 3.36 17.68 2 17 C5.96 16.505 5.96 16.505 10 16 C10.02689216 14.52093108 10.04634621 13.04172517 10.0625 11.5625 C10.07410156 10.73878906 10.08570313 9.91507813 10.09765625 9.06640625 C10.23267348 7.00836062 10.23267348 7.00836062 9 6 C6.67182036 5.63239269 4.3381615 5.29758419 2 5 C2 4.67 2 4.34 2 4 C4.31 4 6.62 4 9 4 C9 3.34 9 2.68 9 2 C6.03 2 3.06 2 0 2 C0 1.34 0 0.68 0 0 Z " fill="#121C3F" transform="translate(279,130)"/>
<path d="M0 0 C2.68965328 1.03085933 3.84804406 1.9613049 6 4 C6.875 6.25 6.875 6.25 7 8 C5.02 8 3.04 8 1 8 C0.67 7.34 0.34 6.68 0 6 C-2.97981748 5.14171586 -5.90550165 4.85884744 -9 5 C-11.85371439 7.04882059 -13.04691292 9.07036938 -15 12 C-17 10 -17 10 -17.5 7.6875 C-16.89928877 4.45867712 -15.66236431 2.91922713 -13.04296875 0.953125 C-8.84789168 -1.00404289 -4.48623357 -0.72551849 0 0 Z " fill="#152243" transform="translate(228,130)"/>
<path d="M0 0 C0.68359375 1.765625 0.68359375 1.765625 1 4 C-0.21484375 5.921875 -0.21484375 5.921875 -1.9375 7.75 C-2.50339844 8.36359375 -3.06929687 8.9771875 -3.65234375 9.609375 C-4.09707031 10.06828125 -4.54179687 10.5271875 -5 11 C-4.34 11.33 -3.68 11.66 -3 12 C-4.918125 12.185625 -4.918125 12.185625 -6.875 12.375 C-10.34790936 12.69042399 -10.34790936 12.69042399 -13 15 C-13.38403123 16.94151362 -13.38403123 16.94151362 -13.5 19.0625 C-13.665 20.361875 -13.83 21.66125 -14 23 C-14.66 23.33 -15.32 23.66 -16 24 C-16 20.04 -16 16.08 -16 12 C-17.32 12 -18.64 12 -20 12 C-19.67 10.68 -19.34 9.36 -19 8 C-18.19175781 7.90203125 -17.38351563 7.8040625 -16.55078125 7.703125 C-8.50447422 6.63342864 -8.50447422 6.63342864 -2 2 C-1.34 2 -0.68 2 0 2 C0 1.34 0 0.68 0 0 Z " fill="#EFF1F3" transform="translate(236,144)"/>
<path d="M0 0 C1.60875 -0.04125 3.2175 -0.0825 4.875 -0.125 C5.77992188 -0.14820313 6.68484375 -0.17140625 7.6171875 -0.1953125 C10 0 10 0 12 2 C11.625 4.125 11.625 4.125 11 6 C10.34 6 9.68 6 9 6 C9.66 7.65 10.32 9.3 11 11 C10.01 11 9.02 11 8 11 C7.34 10.01 6.68 9.02 6 8 C5.01 7.67 4.02 7.34 3 7 C3 8.32 3 9.64 3 11 C2.01 11 1.02 11 0 11 C0 7.37 0 3.74 0 0 Z " fill="#333E59" transform="translate(187,157)"/>
<path d="M0 0 C3.63 0 7.26 0 11 0 C11 0.99 11 1.98 11 3 C8.36 3 5.72 3 3 3 C3 3.66 3 4.32 3 5 C5.31 5 7.62 5 10 5 C10 5.99 10 6.98 10 8 C7.69 8 5.38 8 3 8 C3 8.66 3 9.32 3 10 C5.64 10 8.28 10 11 10 C11 10.66 11 11.32 11 12 C7.37 12 3.74 12 0 12 C0 8.04 0 4.08 0 0 Z " fill="#363D55" transform="translate(97,156)"/>
<path d="M0 0 C4.62 0 9.24 0 14 0 C14 0.99 14 1.98 14 3 C9.545 3.495 9.545 3.495 5 4 C4.67 7.96 4.34 11.92 4 16 C3.67 16 3.34 16 3 16 C2.67 13.03 2.34 10.06 2 7 C2 10.63 2 14.26 2 18 C4.97 17.67 7.94 17.34 11 17 C11 17.66 11 18.32 11 19 C7.37 19 3.74 19 0 19 C0 12.73 0 6.46 0 0 Z " fill="#071438" transform="translate(185,131)"/>
<path d="M0 0 C3.3 0 6.6 0 10 0 C10.625 2.375 10.625 2.375 11 5 C10.34 5.66 9.68 6.32 9 7 C9.66 8.32 10.32 9.64 11 11 C9.0625 10.625 9.0625 10.625 7 10 C6.67 9.34 6.34 8.68 6 8 C3.97536745 7.34786708 3.97536745 7.34786708 2 7 C2 8.32 2 9.64 2 11 C1.34 11 0.68 11 0 11 C0 7.37 0 3.74 0 0 Z " fill="#202A42" transform="translate(345,157)"/>
<path d="M0 0 C9.9609375 -0.1953125 9.9609375 -0.1953125 13 0 C13.66 0.66 14.32 1.32 15 2 C13.41727399 3.58272601 11.61965997 3.34735747 9.4375 3.5625 C8.19806641 3.68818359 8.19806641 3.68818359 6.93359375 3.81640625 C5.97646484 3.90728516 5.97646484 3.90728516 5 4 C4.67 5.98 4.34 7.96 4 10 C3.67 10 3.34 10 3 10 C2.91113816 13.19902639 3.08941469 15.92677456 4 19 C2.68 19 1.36 19 0 19 C0 12.73 0 6.46 0 0 Z " fill="#0E1943" transform="translate(346,131)"/>
<path d="M0 0 C1.37478516 0.01740234 1.37478516 0.01740234 2.77734375 0.03515625 C3.69644531 0.04417969 4.61554688 0.05320313 5.5625 0.0625 C6.27277344 0.07410156 6.98304688 0.08570313 7.71484375 0.09765625 C7.71484375 1.08765625 7.71484375 2.07765625 7.71484375 3.09765625 C5.07484375 3.09765625 2.43484375 3.09765625 -0.28515625 3.09765625 C-0.28515625 3.75765625 -0.28515625 4.41765625 -0.28515625 5.09765625 C2.02484375 5.09765625 4.33484375 5.09765625 6.71484375 5.09765625 C6.71484375 5.75765625 6.71484375 6.41765625 6.71484375 7.09765625 C4.40484375 7.09765625 2.09484375 7.09765625 -0.28515625 7.09765625 C-0.28515625 8.08765625 -0.28515625 9.07765625 -0.28515625 10.09765625 C2.35484375 10.09765625 4.99484375 10.09765625 7.71484375 10.09765625 C7.71484375 10.75765625 7.71484375 11.41765625 7.71484375 12.09765625 C4.08484375 12.09765625 0.45484375 12.09765625 -3.28515625 12.09765625 C-3.3828125 3.6015625 -3.3828125 3.6015625 -3.28515625 1.09765625 C-2.28515625 0.09765625 -2.28515625 0.09765625 0 0 Z " fill="#333B57" transform="translate(298.28515625,155.90234375)"/>
<path d="M0 0 C3.63 0 7.26 0 11 0 C11 0.66 11 1.32 11 2 C8.36 2 5.72 2 3 2 C3 2.66 3 3.32 3 4 C5.31 4 7.62 4 10 4 C10.33 4.99 10.66 5.98 11 7 C8.36 7 5.72 7 3 7 C3 7.66 3 8.32 3 9 C5.64 9 8.28 9 11 9 C11 9.66 11 10.32 11 11 C7.37 11 3.74 11 0 11 C0 7.37 0 3.74 0 0 Z " fill="#333A52" transform="translate(173,157)"/>
<path d="M0 0 C1.32 0 2.64 0 4 0 C4.33 1.98 4.66 3.96 5 6 C5.66 6 6.32 6 7 6 C7.33 4.02 7.66 2.04 8 0 C9.32 0 10.64 0 12 0 C12 3.63 12 7.26 12 11 C11.34 11 10.68 11 10 11 C9.67 9.35 9.34 7.7 9 6 C8.34 7.32 7.68 8.64 7 10 C6.01 9.67 5.02 9.34 4 9 C3.67 8.01 3.34 7.02 3 6 C2.67 7.65 2.34 9.3 2 11 C1.34 11 0.68 11 0 11 C0 7.37 0 3.74 0 0 Z " fill="#1C2746" transform="translate(309,157)"/>
<path d="M0 0 C3.0625 0.25 3.0625 0.25 6.0625 2.25 C6.0625 2.91 6.0625 3.57 6.0625 4.25 C3.4225 3.92 0.7825 3.59 -1.9375 3.25 C-1.9375 3.91 -1.9375 4.57 -1.9375 5.25 C0.3725 5.58 2.6825 5.91 5.0625 6.25 C5.6875 8.125 5.6875 8.125 6.0625 10.25 C4.0625 12.25 4.0625 12.25 2.1171875 12.4453125 C0.09895833 12.38020833 -1.91927083 12.31510417 -3.9375 12.25 C-4.2675 11.26 -4.5975 10.27 -4.9375 9.25 C-2.2975 9.58 0.3425 9.91 3.0625 10.25 C3.0625 9.59 3.0625 8.93 3.0625 8.25 C0.7525 7.92 -1.5575 7.59 -3.9375 7.25 C-4.5625 4.875 -4.5625 4.875 -4.9375 2.25 C-2.9375 0.25 -2.9375 0.25 0 0 Z " fill="#3A415C" transform="translate(248.9375,155.75)"/>
<path d="M0 0 C3.96 0 7.92 0 12 0 C12 0.99 12 1.98 12 3 C9.36 3.33 6.72 3.66 4 4 C3.37470103 9.0247239 2.86987908 13.92528427 3 19 C2.01 19 1.02 19 0 19 C0 12.73 0 6.46 0 0 Z " fill="#051237" transform="translate(251,131)"/>
<path d="M0 0 C4 1 4 1 6.25 4.0625 C7.11625 5.5165625 7.11625 5.5165625 8 7 C8.33 5.02 8.66 3.04 9 1 C9.66 1 10.32 1 11 1 C11 4.63 11 8.26 11 12 C7 11 7 11 5.25 8.4375 C4.8375 7.633125 4.425 6.82875 4 6 C3.67 7.98 3.34 9.96 3 12 C2.01 12 1.02 12 0 12 C0 8.04 0 4.08 0 0 Z " fill="#262C4B" transform="translate(208,156)"/>
<path d="M0 0 C1.670625 0.061875 1.670625 0.061875 3.375 0.125 C3.705 1.115 4.035 2.105 4.375 3.125 C2.065 2.795 -0.245 2.465 -2.625 2.125 C-2.625 2.785 -2.625 3.445 -2.625 4.125 C-0.315 4.455 1.995 4.785 4.375 5.125 C5.0625 6.9375 5.0625 6.9375 5.375 9.125 C4.375 10.9375 4.375 10.9375 2.375 12.125 C-1.3125 11.8125 -1.3125 11.8125 -4.625 11.125 C-4.955 10.135 -5.285 9.145 -5.625 8.125 C-2.985 8.455 -0.345 8.785 2.375 9.125 C2.375 8.465 2.375 7.805 2.375 7.125 C0.065 6.795 -2.245 6.465 -4.625 6.125 C-5.25 4.25 -5.25 4.25 -5.625 2.125 C-3.625 0.125 -3.625 0.125 0 0 Z " fill="#1C2545" transform="translate(336.625,156.875)"/>
<path d="M0 0 C0.70125 0.01417969 1.4025 0.02835938 2.125 0.04296875 C3.176875 0.05263672 3.176875 0.05263672 4.25 0.0625 C6.125 0.23046875 6.125 0.23046875 8.125 1.23046875 C8.125 1.89046875 8.125 2.55046875 8.125 3.23046875 C5.485 3.23046875 2.845 3.23046875 0.125 3.23046875 C0.125 4.88046875 0.125 6.53046875 0.125 8.23046875 C1.775 8.23046875 3.425 8.23046875 5.125 8.23046875 C4.135 7.90046875 3.145 7.57046875 2.125 7.23046875 C2.125 6.57046875 2.125 5.91046875 2.125 5.23046875 C4.105 5.23046875 6.085 5.23046875 8.125 5.23046875 C8.125 7.21046875 8.125 9.19046875 8.125 11.23046875 C6.50081255 11.31137846 4.87548255 11.3696187 3.25 11.41796875 C1.89261719 11.47017578 1.89261719 11.47017578 0.5078125 11.5234375 C-0.67167969 11.37841797 -0.67167969 11.37841797 -1.875 11.23046875 C-4.17663882 7.77801051 -4.21990322 6.28308162 -3.875 2.23046875 C-1.875 0.23046875 -1.875 0.23046875 0 0 Z " fill="#323954" transform="translate(225.875,156.76953125)"/>
<path d="M0 0 C0.05395478 1.62463842 0.09277195 3.24978541 0.125 4.875 C0.14820313 5.77992188 0.17140625 6.68484375 0.1953125 7.6171875 C0 10 0 10 -2 12 C-4.8203125 12.1953125 -4.8203125 12.1953125 -8.125 12.125 C-9.22070312 12.10695312 -10.31640625 12.08890625 -11.4453125 12.0703125 C-12.28835937 12.04710937 -13.13140625 12.02390625 -14 12 C-14 11.34 -14 10.68 -14 10 C-10.04 10 -6.08 10 -2 10 C-2 9.34 -2 8.68 -2 8 C-4.64 8 -7.28 8 -10 8 C-10 7.34 -10 6.68 -10 6 C-7.69 6 -5.38 6 -3 6 C-3 5.01 -3 4.02 -3 3 C-5.31 3 -7.62 3 -10 3 C-10 2.34 -10 1.68 -10 1 C-2.25 0 -2.25 0 0 0 Z " fill="#E5E8EA" transform="translate(173,158)"/>
<path d="M0 0 C3.5 0.1875 3.5 0.1875 5.5 1.1875 C5.5 1.8475 5.5 2.5075 5.5 3.1875 C2.86 2.8575 0.22 2.5275 -2.5 2.1875 C-2.5 4.1675 -2.5 6.1475 -2.5 8.1875 C0.47 8.6825 0.47 8.6825 3.5 9.1875 C3.5 8.5275 3.5 7.8675 3.5 7.1875 C2.51 7.1875 1.52 7.1875 0.5 7.1875 C0.5 6.5275 0.5 5.8675 0.5 5.1875 C2.48 5.1875 4.46 5.1875 6.5 5.1875 C6.542721 6.85361905 6.54063832 8.52132885 6.5 10.1875 C4.83315985 11.85434015 2.84356931 11.39822764 0.5625 11.4375 C-0.33339844 11.46328125 -1.22929687 11.4890625 -2.15234375 11.515625 C-2.92707031 11.40734375 -3.70179687 11.2990625 -4.5 11.1875 C-6.5 8.1875 -6.5 8.1875 -6.25 5.125 C-5.15605288 0.84037377 -4.45551115 0.2386881 0 0 Z " fill="#282D4A" transform="translate(130.5,156.8125)"/>
<path d="M0 0 C4.29425875 1.07356469 4.74740471 1.5084773 7 5 C7.33 3.35 7.66 1.7 8 0 C8.99 0 9.98 0 11 0 C11 3.63 11 7.26 11 11 C6.72789016 9.93197254 6.15831257 9.56121574 4 6 C4 5.34 4 4.68 4 4 C3.34 4 2.68 4 2 4 C2 6.31 2 8.62 2 11 C1.34 11 0.68 11 0 11 C0 7.37 0 3.74 0 0 Z " fill="#1C2345" transform="translate(146,157)"/>
<path d="M0 0 C3.625 0.375 3.625 0.375 7 1 C7.33 1.99 7.66 2.98 8 4 C5.69 3.67 3.38 3.34 1 3 C1 3.66 1 4.32 1 5 C2.1446875 4.9071875 2.1446875 4.9071875 3.3125 4.8125 C6 5 6 5 7.8125 6.5 C8.204375 6.995 8.59625 7.49 9 8 C8.34 9.32 7.68 10.64 7 12 C4.36 12 1.72 12 -1 12 C-1.33 11.01 -1.66 10.02 -2 9 C0.64 9.33 3.28 9.66 6 10 C6 9.34 6 8.68 6 8 C3.69 7.67 1.38 7.34 -1 7 C-1.625 4.625 -1.625 4.625 -2 2 C-1.34 1.34 -0.68 0.68 0 0 Z " fill="#313757" transform="translate(272,156)"/>
<path d="M0 0 C3.3 0 6.6 0 10 0 C10 0.33 10 0.66 10 1 C7.69 1 5.38 1 3 1 C3 1.99 3 2.98 3 4 C5.31 4 7.62 4 10 4 C10 4.99 10 5.98 10 7 C7.69 7 5.38 7 3 7 C3 7.66 3 8.32 3 9 C5.64 9 8.28 9 11 9 C11 9.66 11 10.32 11 11 C7.37 11 3.74 11 0 11 C0 7.37 0 3.74 0 0 Z " fill="#16203C" transform="translate(160,157)"/>
<path d="M0 0 C2.37625177 -0.10883596 4.74743976 -0.18766696 7.125 -0.25 C7.79015625 -0.28351563 8.4553125 -0.31703125 9.140625 -0.3515625 C14.28175552 -0.45236898 17.06679432 0.75539709 21 4 C23.4294516 7.6441774 23.16179575 9.71241272 23 14 C22.01 14.495 22.01 14.495 21 15 C21 12.69 21 10.38 21 8 C20.195625 7.855625 19.39125 7.71125 18.5625 7.5625 C16 7 16 7 15 6 C13.31816052 5.76712992 11.6287584 5.58735834 9.9375 5.4375 C9.01839844 5.35371094 8.09929687 5.26992187 7.15234375 5.18359375 C6.08693359 5.09271484 6.08693359 5.09271484 5 5 C5 4.67 5 4.34 5 4 C7.97 4 10.94 4 14 4 C14 3.01 14 2.02 14 1 C9.38 1 4.76 1 0 1 C0 0.67 0 0.34 0 0 Z " fill="#35435E" transform="translate(185,130)"/>
<path d="M0 0 C4.62 0 9.24 0 14 0 C13.67 0.99 13.34 1.98 13 3 C10.36 3.33 7.72 3.66 5 4 C4.67 7.96 4.34 11.92 4 16 C3.67 16 3.34 16 3 16 C2.67 12.7 2.34 9.4 2 6 C1.67 10.62 1.34 15.24 1 20 C0.67 20 0.34 20 0 20 C0 13.4 0 6.8 0 0 Z " fill="#08143B" transform="translate(159,131)"/>
<path d="M0 0 C1.8871875 0.0309375 1.8871875 0.0309375 3.8125 0.0625 C4.1425 0.7225 4.4725 1.3825 4.8125 2.0625 C4.22082031 2.08828125 3.62914062 2.1140625 3.01953125 2.140625 C-0.84720942 2.41817245 -3.66729233 2.78579379 -7.125 4.625 C-9.94036786 7.95225293 -10.23066349 10.82508116 -11.1875 15.0625 C-12.1775 15.7225 -13.1675 16.3825 -14.1875 17.0625 C-15.1775 16.7325 -16.1675 16.4025 -17.1875 16.0625 C-16.5275 15.69125 -15.8675 15.32 -15.1875 14.9375 C-12.90186298 13.17327002 -12.90186298 13.17327002 -12.6875 10.125 C-13.28218251 6.48256964 -14.37111562 5.35081231 -17.1875 3.0625 C-16.8575 2.4025 -16.5275 1.7425 -16.1875 1.0625 C-15.259375 1.805 -15.259375 1.805 -14.3125 2.5625 C-12.34869096 4.25472773 -12.34869096 4.25472773 -10.1875 4.0625 C-9.713125 3.588125 -9.23875 3.11375 -8.75 2.625 C-6.13016183 0.00516183 -3.51267065 -0.05758476 0 0 Z " fill="#DFE3EA" transform="translate(283.1875,127.9375)"/>
<path d="M0 0 C4.29425875 1.07356469 4.74740471 1.5084773 7 5 C7.33 3.35 7.66 1.7 8 0 C8.66 0 9.32 0 10 0 C10 3.63 10 7.26 10 11 C6.23312136 9.11656068 5.20578354 8.30867531 3 5 C2.67 6.98 2.34 8.96 2 11 C1.34 11 0.68 11 0 11 C0 7.37 0 3.74 0 0 Z " fill="#151B3C" transform="translate(111,157)"/>
<path d="M0 0 C2.23028553 0.49561901 4.20961061 1.09064243 6.3125 2 C9.51910877 3.19315675 12.61124193 3.60132258 16 4 C16 5.32 16 6.64 16 8 C10.46130839 8.32580539 6.60838344 8.49119957 2 5 C1.34 4.67 0.68 4.34 0 4 C0 2.68 0 1.36 0 0 Z " fill="#EDF1F3" transform="translate(96,139)"/>
<path d="M0 0 C0.33 0 0.66 0 1 0 C1 3.63 1 7.26 1 11 C0.34 10.67 -0.32 10.34 -1 10 C-1 8.02 -1 6.04 -1 4 C-2.98 4 -4.96 4 -7 4 C-7 4.66 -7 5.32 -7 6 C-6.01 6 -5.02 6 -4 6 C-4 6.66 -4 7.32 -4 8 C-5.98 8 -7.96 8 -10 8 C-11.125 3.25 -11.125 3.25 -10 1 C-9.36191406 1.01160156 -8.72382813 1.02320313 -8.06640625 1.03515625 C-7.24011719 1.04417969 -6.41382813 1.05320313 -5.5625 1.0625 C-4.32693359 1.07990234 -4.32693359 1.07990234 -3.06640625 1.09765625 C-1.00836062 1.23267348 -1.00836062 1.23267348 0 0 Z " fill="#E0E5EB" transform="translate(138,158)"/>
<path d="M0 0 C3.3 0 6.6 0 10 0 C10.38218767 1.65614657 10.71395102 3.32457024 11 5 C10 6 10 6 7.71484375 6.09765625 C6.34005859 6.08025391 6.34005859 6.08025391 4.9375 6.0625 C4.01839844 6.05347656 3.09929687 6.04445312 2.15234375 6.03515625 C1.44207031 6.02355469 0.73179687 6.01195312 0 6 C0 4.02 0 2.04 0 0 Z " fill="#C6CBD1" transform="translate(351,135)"/>
<path d="M0 0 C3.3 0 6.6 0 10 0 C10.38218767 1.65614657 10.71395102 3.32457024 11 5 C10 6 10 6 7.71484375 6.09765625 C6.34005859 6.08025391 6.34005859 6.08025391 4.9375 6.0625 C4.01839844 6.05347656 3.09929687 6.04445312 2.15234375 6.03515625 C1.44207031 6.02355469 0.73179687 6.01195312 0 6 C0 4.02 0 2.04 0 0 Z " fill="#E7EBF1" transform="translate(255,135)"/>
<path d="M0 0 C3.63 0.33 7.26 0.66 11 1 C10.01 1.33 9.02 1.66 8 2 C8 2.66 8 3.32 8 4 C4.7 4.33 1.4 4.66 -2 5 C-2 9.29 -2 13.58 -2 18 C-2.66 18 -3.32 18 -4 18 C-4.10832169 15.91781638 -4.18573541 13.83400871 -4.25 11.75 C-4.29640625 10.58984375 -4.3428125 9.4296875 -4.390625 8.234375 C-3.92790489 4.40305252 -2.90879703 3.40491093 0 1 C0 0.67 0 0.34 0 0 Z " fill="#EEF2F4" transform="translate(99,151)"/>
<path d="M0 0 C-1.40438887 3.39393978 -2.86383098 5.08345227 -6 7 C-8.578125 7.29296875 -8.578125 7.29296875 -11.25 7.1875 C-12.14203125 7.16042969 -13.0340625 7.13335937 -13.953125 7.10546875 C-14.96632812 7.05326172 -14.96632812 7.05326172 -16 7 C-15.67 6.01 -15.34 5.02 -15 4 C-13.02253397 3.26919734 -11.01927511 2.60578253 -9 2 C-5.5647952 -0.29013653 -4.014669 -0.17842973 0 0 Z " fill="#12203E" transform="translate(235,144)"/>
<path d="M0 0 C1.32 0 2.64 0 4 0 C4.66 2.97 5.32 5.94 6 9 C6.66 9 7.32 9 8 9 C8 9.66 8 10.32 8 11 C7.360625 11.103125 6.72125 11.20625 6.0625 11.3125 C5.0415625 11.6528125 5.0415625 11.6528125 4 12 C3.67 12.99 3.34 13.98 3 15 C2.49363393 13.25183142 1.99515381 11.50137737 1.5 9.75 C1.2215625 8.77546875 0.943125 7.8009375 0.65625 6.796875 C0 4 0 4 0 0 Z " fill="#243154" transform="translate(297,131)"/>
<path d="M0 0 C0.99 0 1.98 0 3 0 C1.79618552 2.49361571 0.54571278 4.68143083 -1 7 C-1.38499891 8.65549531 -1.72793135 10.3222433 -2 12 C-2.99 12 -3.98 12 -5 12 C-5.28875 10.9275 -5.5775 9.855 -5.875 8.75 C-6.72820109 5.90599636 -7.5636503 3.56491017 -9 1 C-6 1 -6 1 -4.3125 2.5 C-3.879375 2.995 -3.44625 3.49 -3 4 C-2.3503125 3.01 -2.3503125 3.01 -1.6875 2 C-1.130625 1.34 -0.57375 0.68 0 0 Z " fill="#2B2F46" transform="translate(266,156)"/>
<path d="M0 0 C0.99 0.33 1.98 0.66 3 1 C2.319375 1.639375 1.63875 2.27875 0.9375 2.9375 C-3.16881796 7.03205201 -7.39809114 11.79618227 -10 17 C-10.66 17 -11.32 17 -12 17 C-11.59367213 10.49875409 -6.80962487 5.72545627 -2.3125 1.4375 C-1.1678125 0.7259375 -1.1678125 0.7259375 0 0 Z " fill="#182342" transform="translate(220,18)"/>
<path d="M0 0 C0.33 0 0.66 0 1 0 C1 4.29 1 8.58 1 13 C0.67 12.01 0.34 11.02 0 10 C-2.97 10 -5.94 10 -9 10 C-9 9.34 -9 8.68 -9 8 C-6.36 8 -3.72 8 -1 8 C-1.33 7.34 -1.66 6.68 -2 6 C-4.32156597 5.59270772 -6.6568787 5.25561323 -9 5 C-9 4.34 -9 3.68 -9 3 C-6.03 3 -3.06 3 0 3 C0 2.01 0 1.02 0 0 Z " fill="#F4F7F8" transform="translate(185,156)"/>
<path d="M0 0 C0.66 0.99 1.32 1.98 2 3 C5.55672179 4.2188121 5.55672179 4.2188121 9 5 C9 5.66 9 6.32 9 7 C8.37351562 6.9278125 7.74703125 6.855625 7.1015625 6.78125 C6.28429687 6.6884375 5.46703125 6.595625 4.625 6.5 C3.81289063 6.4071875 3.00078125 6.314375 2.1640625 6.21875 C0.03087175 5.96647649 0.03087175 5.96647649 -2 6 C-2.33 7.32 -2.66 8.64 -3 10 C-3.66 10 -4.32 10 -5 10 C-5.25 4.375 -5.25 4.375 -3 1 C-2.01 0.67 -1.02 0.34 0 0 Z " fill="#D5DBE6" transform="translate(269,159)"/>
<path d="M0 0 C0.33 0 0.66 0 1 0 C1 6.6 1 13.2 1 20 C2.65 20 4.3 20 6 20 C6 20.33 6 20.66 6 21 C0.02842601 21.92449827 -5.48241459 21.9888273 -11.5 21.5625 C-12.32242187 21.51029297 -13.14484375 21.45808594 -13.9921875 21.40429688 C-15.99522899 21.27619538 -17.99768871 21.13904939 -20 21 C-20 20.67 -20 20.34 -20 20 C-14.06 20 -8.12 20 -2 20 C-0.97134997 15.88539986 -0.66435325 11.95980136 -0.4375 7.75 C-0.39431641 7.00492188 -0.35113281 6.25984375 -0.30664062 5.4921875 C-0.20103275 3.661651 -0.10005799 1.83084824 0 0 Z " fill="#A3ABB9" transform="translate(345,131)"/>
<path d="M0 0 C1.65 0 3.3 0 5 0 C4.70488433 2.85278483 4.18767059 3.83578823 2 5.75 C-2.06273416 7.4428059 -5.65923807 7.25533894 -10 7 C-10 6.01 -10 5.02 -10 4 C-5.545 3.505 -5.545 3.505 -1 3 C-0.67 2.01 -0.34 1.02 0 0 Z " fill="#101E3D" transform="translate(140,144)"/>
<path d="M0 0 C2.375 -0.125 2.375 -0.125 5 0 C5.66 0.66 6.32 1.32 7 2 C9.65537372 2.56520003 12.29144713 2.73788198 15 3 C15 3.33 15 3.66 15 4 C12.69 4.33 10.38 4.66 8 5 C8 5.33 8 5.66 8 6 C10.31 6.33 12.62 6.66 15 7 C15 7.33 15 7.66 15 8 C7.06666667 8.62222222 7.06666667 8.62222222 3 6.25 C1.04170446 4.04691751 0.30974383 2.89094238 0 0 Z " fill="#3F4A61" transform="translate(96,144)"/>
<path d="M0 0 C4.29 0 8.58 0 13 0 C13 2.64 13 5.28 13 8 C12.01 8.495 12.01 8.495 11 9 C11 6.36 11 3.72 11 1 C7.54863159 1.38864654 7.54863159 1.38864654 4 3 C2.49491677 5.54307167 1.69859603 8.13908292 1 11 C0.67 11 0.34 11 0 11 C0 7.37 0 3.74 0 0 Z " fill="#192644" transform="translate(250,42)"/>
<path d="M0 0 C0.33 0 0.66 0 1 0 C1.12375 0.7425 1.2475 1.485 1.375 2.25 C1.95486701 4.80141485 2.73708739 6.7267573 4 9 C2.02579865 11.52259061 1.03254358 11.9929808 -2.1875 12.6875 C-3.5796875 12.8421875 -3.5796875 12.8421875 -5 13 C-5 12.34 -5 11.68 -5 11 C-6.32 10.34 -7.64 9.68 -9 9 C-6.36 8.67 -3.72 8.34 -1 8 C-0.67 5.36 -0.34 2.72 0 0 Z " fill="#2B3353" transform="translate(290,138)"/>
<path d="M0 0 C2 2 2 2 2 5 C0.02 5 -1.96 5 -4 5 C-4.33 4.34 -4.66 3.68 -5 3 C-7.3140622 2.26924352 -9.64828869 1.59861742 -12 1 C-7.32545539 -2.11636307 -5.10812113 -2.55406056 0 0 Z " fill="#1C2646" transform="translate(233,133)"/>
<path d="M0 0 C4.29 0 8.58 0 13 0 C13 0.66 13 1.32 13 2 C8.545 2.495 8.545 2.495 4 3 C3.67 6.96 3.34 10.92 3 15 C2.67 15 2.34 15 2 15 C1.93941406 14.41992188 1.87882813 13.83984375 1.81640625 13.2421875 C1.73261719 12.46101562 1.64882812 11.67984375 1.5625 10.875 C1.48128906 10.10929688 1.40007812 9.34359375 1.31640625 8.5546875 C0.96178358 5.69143782 0.4743119 2.84587143 0 0 Z " fill="#0B1A41" transform="translate(186,132)"/>
<path d="M0 0 C2.97 0.33 5.94 0.66 9 1 C9.33 3.31 9.66 5.62 10 8 C7.28817788 10.60334924 6.10866187 10.99456691 2.25 11.1875 C0.64125 11.0946875 0.64125 11.0946875 -1 11 C-1 10.67 -1 10.34 -1 10 C1.31 9.34 3.62 8.68 6 8 C6.33 6.68 6.66 5.36 7 4 C4.69 3.34 2.38 2.68 0 2 C0 1.34 0 0.68 0 0 Z " fill="#E6EAEF" transform="translate(247,159)"/>
<path d="M0 0 C0.99 0.33 1.98 0.66 3 1 C4.34351145 8.45038168 4.34351145 8.45038168 2.75 11 C1 12 1 12 -2 12 C-2.26252625 7.66831683 -1.29243536 4.1196377 0 0 Z " fill="#111F40" transform="translate(203,137)"/>
<path d="M0 0 C2.6015625 0.0234375 2.6015625 0.0234375 5.625 0.375 C6.62789063 0.48585937 7.63078125 0.59671875 8.6640625 0.7109375 C9.82035156 0.85402344 9.82035156 0.85402344 11 1 C11 1.66 11 2.32 11 3 C1.58997722 5.11161731 1.58997722 5.11161731 -3 6 C-2.42655063 3.13275314 -2.1385485 2.1385485 0 0 Z " fill="#0F193B" transform="translate(277,131)"/>
<path d="M0 0 C1.134375 0.020625 2.26875 0.04125 3.4375 0.0625 C3.4375 0.3925 3.4375 0.7225 3.4375 1.0625 C1.4575 1.0625 -0.5225 1.0625 -2.5625 1.0625 C-2.2325 1.743125 -1.9025 2.42375 -1.5625 3.125 C-0.37245439 6.62075899 -0.28547197 9.39187859 -0.5625 13.0625 C-1.2225 13.7225 -1.8825 14.3825 -2.5625 15.0625 C-2.68625 13.94875 -2.81 12.835 -2.9375 11.6875 C-3.2090813 8.03146323 -3.2090813 8.03146323 -5.5625 6.0625 C-4.83351201 0.08479846 -4.83351201 0.08479846 0 0 Z " fill="#E8EDEF" transform="translate(298.5625,128.9375)"/>
<path d="M0 0 C5.859375 -0.390625 5.859375 -0.390625 8 0 C9.32 1.32 10.64 2.64 12 4 C8.04 4 4.08 4 0 4 C0 2.68 0 1.36 0 0 Z " fill="#E5E8ED" transform="translate(103,134)"/>
<path d="M0 0 C3.34480897 4.45974529 3.3463577 5.23046268 2.875 10.5 C2.78992188 11.6240625 2.70484375 12.748125 2.6171875 13.90625 C2 17 2 17 -1 21 C-0.67 14.07 -0.34 7.14 0 0 Z " fill="#A4ABB7" transform="translate(374,60)"/>
<path d="M0 0 C1.670625 0.061875 1.670625 0.061875 3.375 0.125 C3.705 1.115 4.035 2.105 4.375 3.125 C2.065 2.795 -0.245 2.465 -2.625 2.125 C-2.625 2.785 -2.625 3.445 -2.625 4.125 C-0.975 4.125 0.675 4.125 2.375 4.125 C2.045 5.115 1.715 6.105 1.375 7.125 C-1.595 6.63 -1.595 6.63 -4.625 6.125 C-5.25 4.25 -5.25 4.25 -5.625 2.125 C-3.625 0.125 -3.625 0.125 0 0 Z " fill="#3B445D" transform="translate(336.625,156.875)"/>
<path d="M0 0 C2.86697492 1.28519565 4.97607712 2.57129254 7 5 C7 5.66 7 6.32 7 7 C4.25 7.25 4.25 7.25 1 7 C-1.375 5 -1.375 5 -3 3 C-2.34 3 -1.68 3 -1 3 C-0.67 2.01 -0.34 1.02 0 0 Z " fill="#1F2D4E" transform="translate(139,131)"/>
<path d="M0 0 C0.70125 0.01417969 1.4025 0.02835938 2.125 0.04296875 C3.176875 0.05263672 3.176875 0.05263672 4.25 0.0625 C6.125 0.23046875 6.125 0.23046875 8.125 1.23046875 C8.125 1.89046875 8.125 2.55046875 8.125 3.23046875 C5.485 3.23046875 2.845 3.23046875 0.125 3.23046875 C-0.535 5.21046875 -1.195 7.19046875 -1.875 9.23046875 C-2.535 8.90046875 -3.195 8.57046875 -3.875 8.23046875 C-4 5.35546875 -4 5.35546875 -3.875 2.23046875 C-1.875 0.23046875 -1.875 0.23046875 0 0 Z " fill="#27304B" transform="translate(225.875,156.76953125)"/>
<path d="M0 0 C0.99 0 1.98 0 3 0 C3 0.99 3 1.98 3 3 C3.99 3.33 4.98 3.66 6 4 C6 6 6 8 6 10 C4.68 10.33 3.36 10.66 2 11 C0.80712589 7.12315913 0 4.08378077 0 0 Z " fill="#101E47" transform="translate(311,139)"/>
<path d="M0 0 C0.33 0.66 0.66 1.32 1 2 C0.67 2.66 0.34 3.32 0 4 C-3.3 4 -6.6 4 -10 4 C-10 3.01 -10 2.02 -10 1 C-6.52674819 -0.1577506 -3.63932552 -0.06866652 0 0 Z " fill="#0F1C3C" transform="translate(138,130)"/>
<path d="M0 0 C2.375 0.25 2.375 0.25 5 1 C6.3125 3.0625 6.3125 3.0625 7 5 C5 7 5 7 3.0546875 7.1953125 C1.03645833 7.13020833 -0.98177083 7.06510417 -3 7 C-3.33 6.01 -3.66 5.02 -4 4 C-1.36 4.33 1.28 4.66 4 5 C4 4.34 4 3.68 4 3 C3.01 2.67 2.02 2.34 1 2 C0.67 1.34 0.34 0.68 0 0 Z " fill="#373F5C" transform="translate(274,161)"/>
<path d="M0 0 C-0.99 1.485 -0.99 1.485 -2 3 C-5.0390625 3.29296875 -5.0390625 3.29296875 -8.625 3.1875 C-9.81351562 3.16042969 -11.00203125 3.13335937 -12.2265625 3.10546875 C-13.59941406 3.05326172 -13.59941406 3.05326172 -15 3 C-15 2.34 -15 1.68 -15 1 C-13.44033408 0.63355422 -11.87707349 0.28239138 -10.3125 -0.0625 C-9.44238281 -0.25972656 -8.57226562 -0.45695313 -7.67578125 -0.66015625 C-4.83998724 -1.02032279 -2.75210018 -0.70909969 0 0 Z " fill="#0B1738" transform="translate(270,141)"/>
<path d="M0 0 C0.66 0 1.32 0 2 0 C2 2.97 2 5.94 2 9 C4.31 9 6.62 9 9 9 C9 9.66 9 10.32 9 11 C6.03 11 3.06 11 0 11 C0 7.37 0 3.74 0 0 Z " fill="#172038" transform="translate(360,157)"/>
<path d="M0 0 C3.63 0 7.26 0 11 0 C9.68 0.33 8.36 0.66 7 1 C7 4.3 7 7.6 7 11 C6.34 11 5.68 11 5 11 C5 8.03 5 5.06 5 2 C3.35 2 1.7 2 0 2 C0 1.34 0 0.68 0 0 Z " fill="#191E45" transform="translate(282,157)"/>
<path d="M0 0 C1.65 0 3.3 0 5 0 C4.01 0.33 3.02 0.66 2 1 C2 2.32 2 3.64 2 5 C3.65 5 5.3 5 7 5 C6.67 5.99 6.34 6.98 6 8 C4.68 7.67 3.36 7.34 2 7 C2 8.32 2 9.64 2 11 C1.34 11 0.68 11 0 11 C0 7.37 0 3.74 0 0 Z " fill="#172143" transform="translate(345,157)"/>
<path d="M0 0 C2.45840605 -0.02691685 4.91651882 -0.04679802 7.375 -0.0625 C8.07367188 -0.07087891 8.77234375 -0.07925781 9.4921875 -0.08789062 C14.7734375 -0.11328125 14.7734375 -0.11328125 17 1 C16.67 2.65 16.34 4.3 16 6 C12.37 5.67 8.74 5.34 5 5 C5 4.67 5 4.34 5 4 C8.07617188 3.70703125 8.07617188 3.70703125 11.15234375 3.4140625 C12.06693359 3.20910156 12.06693359 3.20910156 13 3 C13.33 2.34 13.66 1.68 14 1 C9.38 1 4.76 1 0 1 C0 0.67 0 0.34 0 0 Z " fill="#4A546F" transform="translate(159,130)"/>
<path d="M0 0 C0.33 0 0.66 0 1 0 C1 3.96 1 7.92 1 12 C1.66 12.33 2.32 12.66 3 13 C1.34385343 13.38218767 -0.32457024 13.71395102 -2 14 C-2.33 13.67 -2.66 13.34 -3 13 C-4.68183948 12.76712992 -6.3712416 12.58735834 -8.0625 12.4375 C-8.98160156 12.35371094 -9.90070313 12.26992187 -10.84765625 12.18359375 C-11.55792969 12.12300781 -12.26820312 12.06242188 -13 12 C-13 11.67 -13 11.34 -13 11 C-9.37 11 -5.74 11 -2 11 C-0.85185003 8.70370006 -0.69230191 6.92301914 -0.4375 4.375 C-0.35371094 3.55773437 -0.26992187 2.74046875 -0.18359375 1.8984375 C-0.12300781 1.27195313 -0.06242187 0.64546875 0 0 Z " fill="#B8BCC7" transform="translate(110,157)"/>
<path d="M0 0 C0.66 0 1.32 0 2 0 C2 4.29 2 8.58 2 13 C0.29115995 11.37660195 -1.37446717 9.70680947 -3 8 C-3 7.34 -3 6.68 -3 6 C-2.34 5.67 -1.68 5.34 -1 5 C-0.34444881 2.47266765 -0.34444881 2.47266765 0 0 Z " fill="#EDF2F6" transform="translate(199,157)"/>
<path d="M0 0 C7.38461538 -0.36923077 7.38461538 -0.36923077 10.5 1.5 C10.995 1.995 11.49 2.49 12 3 C11.34 4.32 10.68 5.64 10 7 C9.67 6.67 9.34 6.34 9 6 C6.67182036 5.63239269 4.3381615 5.29758419 2 5 C2 4.67 2 4.34 2 4 C4.31 4 6.62 4 9 4 C9 3.34 9 2.68 9 2 C6.03 2 3.06 2 0 2 C0 1.34 0 0.68 0 0 Z " fill="#2D3755" transform="translate(279,130)"/>
<path d="M0 0 C2.46800047 1.15173355 4.04783565 2.04783565 6 4 C6.26991906 6.68839385 6.08737357 9.29141936 6 12 C5.67 12 5.34 12 5 12 C4.9071875 10.824375 4.9071875 10.824375 4.8125 9.625 C4.544375 8.75875 4.27625 7.8925 4 7 C1.52363988 5.62533375 1.52363988 5.62533375 -1 5 C-0.67 3.35 -0.34 1.7 0 0 Z " fill="#273353" transform="translate(176,132)"/>
<path d="M0 0 C0.9584336 2.87530081 1.06656387 4.29049931 0.87890625 7.23046875 C0.83056641 8.03291016 0.78222656 8.83535156 0.73242188 9.66210938 C0.67634766 10.49548828 0.62027344 11.32886719 0.5625 12.1875 C0.51029297 13.03248047 0.45808594 13.87746094 0.40429688 14.74804688 C0.27476311 16.83236299 0.13806823 18.91623182 0 21 C-0.33 21 -0.66 21 -1 21 C-1.33 18.36 -1.66 15.72 -2 13 C-2.33 13 -2.66 13 -3 13 C-2.88490339 11.58249437 -2.75746342 10.16598831 -2.625 8.75 C-2.55539062 7.96109375 -2.48578125 7.1721875 -2.4140625 6.359375 C-1.98492887 3.914123 -1.21399362 2.15163097 0 0 Z " fill="#E0E4E7" transform="translate(324,130)"/>
<path d="M0 0 C2.91926519 2.63675566 4.09111127 4.23460384 5 8 C5.99 8.33 6.98 8.66 8 9 C7.21625 8.979375 6.4325 8.95875 5.625 8.9375 C3.01885039 8.81315937 3.01885039 8.81315937 1 10 C-0.60725635 6.78548731 -0.05748185 3.56387464 0 0 Z " fill="#E9EDF1" transform="translate(211,161)"/>
<path d="M0 0 C1.2065625 0.0309375 1.2065625 0.0309375 2.4375 0.0625 C2.7675 0.7225 3.0975 1.3825 3.4375 2.0625 C2.1175 2.0625 0.7975 2.0625 -0.5625 2.0625 C-0.5625 3.0525 -0.5625 4.0425 -0.5625 5.0625 C0.7575 5.3925 2.0775 5.7225 3.4375 6.0625 C2.4375 7.0625 2.4375 7.0625 -0.0625 7.1875 C-2.5625 7.0625 -2.5625 7.0625 -3.5625 6.0625 C-3.6875 3.5625 -3.6875 3.5625 -3.5625 1.0625 C-2.5625 0.0625 -2.5625 0.0625 0 0 Z " fill="#E9EEF1" transform="translate(228.5625,158.9375)"/>
<path d="M0 0 C-0.99 0.495 -0.99 0.495 -2 1 C-2 4.63 -2 8.26 -2 12 C-2.33 12 -2.66 12 -3 12 C-3 8.37 -3 4.74 -3 1 C-4.32 1.33 -5.64 1.66 -7 2 C-8.754132 1.91760895 -10.50611925 1.76901219 -12.25 1.5625 C-13.14203125 1.46066406 -14.0340625 1.35882813 -14.953125 1.25390625 C-15.62859375 1.17011719 -16.3040625 1.08632812 -17 1 C-17 0.67 -17 0.34 -17 0 C-11.06390334 -0.89316269 -5.93024803 -0.97040422 0 0 Z " fill="#9196A2" transform="translate(362,156)"/>
<path d="M0 0 C1.65 0 3.3 0 5 0 C4.01 0.33 3.02 0.66 2 1 C2.33 1.99 2.66 2.98 3 4 C0.36 4.33 -2.28 4.66 -5 5 C-6.00217064 8.58327753 -6.00217064 8.58327753 -5 12 C-5.99 12 -6.98 12 -8 12 C-8.125 8.625 -8.125 8.625 -8 5 C-5.4345406 2.4345406 -3.52313332 2.45953913 0 2 C0 1.34 0 0.68 0 0 Z " fill="#F6F7F9" transform="translate(251,152)"/>
<path d="M0 0 C2.64 0 5.28 0 8 0 C6.47793991 2.62901288 5.15634036 4.84365964 3 7 C3 6.01 3 5.02 3 4 C1.68 4 0.36 4 -1 4 C-0.67 2.68 -0.34 1.36 0 0 Z " fill="#F8FAF7" transform="translate(217,152)"/>
<path d="M0 0 C0.680625 -0.01417969 1.36125 -0.02835938 2.0625 -0.04296875 C4 0.1875 4 0.1875 7 2.1875 C5.34346314 3.84403686 3.39349204 3.35856165 1.125 3.375 C0.24070312 3.38917969 -0.64359375 3.40335938 -1.5546875 3.41796875 C-4 3.1875 -4 3.1875 -7 1.1875 C-4.35559361 0.3060312 -2.71939248 0.02575182 0 0 Z " fill="#0B1838" transform="translate(108,147.8125)"/>
<path d="M0 0 C0.33 0.66 0.66 1.32 1 2 C1.66 2 2.32 2 3 2 C2.67 4.31 2.34 6.62 2 9 C1.01 9 0.02 9 -1 9 C-0.67 7.68 -0.34 6.36 0 5 C-2.31 4.34 -4.62 3.68 -7 3 C-7 2.34 -7 1.68 -7 1 C-4.69 1.33 -2.38 1.66 0 2 C0 1.34 0 0.68 0 0 Z " fill="#BDC4CF" transform="translate(341,158)"/>
<path d="M0 0 C-0.33 0.66 -0.66 1.32 -1 2 C-5.62 2 -10.24 2 -15 2 C-14.67 1.34 -14.34 0.68 -14 0 C-9.06532787 -1.08562787 -4.94881513 -0.90896604 0 0 Z " fill="#0A193C" transform="translate(178,148)"/>
<path d="M0 0 C0.99 0 1.98 0 3 0 C2.88556397 2.0839403 2.75804453 4.16716493 2.625 6.25 C2.55539063 7.41015625 2.48578125 8.5703125 2.4140625 9.765625 C2 13 2 13 0 17 C0 11.39 0 5.78 0 0 Z " fill="#0B1A45" transform="translate(252,132)"/>
<path d="M0 0 C0.33 0 0.66 0 1 0 C1.28571429 8.57142857 1.28571429 8.57142857 -1 12 C-1 10.68 -1 9.36 -1 8 C-4.96 8 -8.92 8 -13 8 C-12.67 6.68 -12.34 5.36 -12 4 C-12 4.99 -12 5.98 -12 7 C-10.3745692 6.85904936 -8.74965949 6.71207913 -7.125 6.5625 C-6.22007812 6.48128906 -5.31515625 6.40007812 -4.3828125 6.31640625 C-1.98889139 6.13010715 -1.98889139 6.13010715 0 5 C0 3.35 0 1.7 0 0 Z " fill="#B0B6C4" transform="translate(343,131)"/>
<path d="M0 0 C1.95803507 -0.05389087 3.91648909 -0.09274217 5.875 -0.125 C7.51082031 -0.15980469 7.51082031 -0.15980469 9.1796875 -0.1953125 C12 0 12 0 14 2 C13 3 13 3 10.93359375 3.09765625 C10.10988281 3.08605469 9.28617187 3.07445312 8.4375 3.0625 C7.61121094 3.05347656 6.78492188 3.04445312 5.93359375 3.03515625 C5.29550781 3.02355469 4.65742188 3.01195312 4 3 C4 2.34 4 1.68 4 1 C2.68 0.67 1.36 0.34 0 0 Z " fill="#081639" transform="translate(347,131)"/>
<path d="M0 0 C0.99 0 1.98 0 3 0 C3 0.99 3 1.98 3 3 C2.34 3 1.68 3 1 3 C1 3.99 1 4.98 1 6 C-0.98 6.99 -2.96 7.98 -5 9 C-5 4.66314164 -2.91985986 3.0556673 0 0 Z " fill="#CBD0D2" transform="translate(365,97)"/>
<path d="M0 0 C0.33 0.66 0.66 1.32 1 2 C3.31 2 5.62 2 8 2 C8.33 2.99 8.66 3.98 9 5 C6.36 5 3.72 5 1 5 C0.67 5.66 0.34 6.32 0 7 C0 4.69 0 2.38 0 0 Z " fill="#4F5470" transform="translate(175,159)"/>
<path d="M0 0 C0.33 0.66 0.66 1.32 1 2 C3.31 2 5.62 2 8 2 C8 2.99 8 3.98 8 5 C5.69 5 3.38 5 1 5 C0.67 5.66 0.34 6.32 0 7 C-1.125 2.25 -1.125 2.25 0 0 Z " fill="#4E5470" transform="translate(162,159)"/>
<path d="M0 0 C0.99 0.33 1.98 0.66 3 1 C1.625 2.5 1.625 2.5 0 4 C-0.66 4 -1.32 4 -2 4 C-2.4021875 5.7015625 -2.4021875 5.7015625 -2.8125 7.4375 C-3.204375 8.613125 -3.59625 9.78875 -4 11 C-4.99 11.33 -5.98 11.66 -7 12 C-6.67566492 6.64847115 -3.50295176 3.71719957 0 0 Z " fill="#111F3D" transform="translate(106,24)"/>
<path d="M0 0 C4.62 0 9.24 0 14 0 C13.67 1.32 13.34 2.64 13 4 C12.34 4 11.68 4 11 4 C11 3.34 11 2.68 11 2 C7.7 2 4.4 2 1 2 C0.67 1.34 0.34 0.68 0 0 Z " fill="#0E1D3C" transform="translate(190,14)"/>
<path d="M0 0 C1.98 0 3.96 0 6 0 C6 1.65 6 3.3 6 5 C3.39417629 5.93065133 2.35801776 6.14917407 -0.25 5.0625 C-0.8275 4.711875 -1.405 4.36125 -2 4 C-0.35 4 1.3 4 3 4 C3 3.34 3 2.68 3 2 C2.01 2 1.02 2 0 2 C0 1.34 0 0.68 0 0 Z " fill="#3E455F" transform="translate(131,162)"/>
<path d="M0 0 C1.32 0.66 2.64 1.32 4 2 C3.37609375 2.07089844 2.7521875 2.14179688 2.109375 2.21484375 C-0.19229321 2.80004532 -0.19229321 2.80004532 -1.046875 5.06640625 C-1.27890625 5.89011719 -1.5109375 6.71382812 -1.75 7.5625 C-1.99234375 8.38878906 -2.2346875 9.21507812 -2.484375 10.06640625 C-2.65453125 10.70449219 -2.8246875 11.34257812 -3 12 C-3.66 12 -4.32 12 -5 12 C-5 10.02 -5 8.04 -5 6 C-4.34 6 -3.68 6 -3 6 C-2.690625 5.195625 -2.38125 4.39125 -2.0625 3.5625 C-1 1 -1 1 0 0 Z " fill="#E8ECF2" transform="translate(308,128)"/>
<path d="M0 0 C0.33 0.66 0.66 1.32 1 2 C3.31 2 5.62 2 8 2 C8 2.99 8 3.98 8 5 C5.69 5 3.38 5 1 5 C0.67 5.66 0.34 6.32 0 7 C0 4.69 0 2.38 0 0 Z " fill="#545E76" transform="translate(99,159)"/>
<path d="M0 0 C2.97 0 5.94 0 9 0 C9 0.33 9 0.66 9 1 C7.02 1.33 5.04 1.66 3 2 C2.67 4.97 2.34 7.94 2 11 C1.34 11 0.68 11 0 11 C0 7.37 0 3.74 0 0 Z " fill="#0F1738" transform="translate(187,157)"/>
<path d="M0 0 C2.97 0.33 5.94 0.66 9 1 C8.67 1.99 8.34 2.98 8 4 C5.69 4 3.38 4 1 4 C0.67 2.68 0.34 1.36 0 0 Z " fill="#101C42" transform="translate(277,147)"/>
<path d="M0 0 C3.3 0.33 6.6 0.66 10 1 C10 1.99 10 2.98 10 4 C3.375 4.25 3.375 4.25 0 2 C0 1.34 0 0.68 0 0 Z " fill="#0A183A" transform="translate(102,138)"/>
<path d="M0 0 C1.32 0 2.64 0 4 0 C4.33 2.31 4.66 4.62 5 7 C3.68 7 2.36 7 1 7 C0.67 7.66 0.34 8.32 0 9 C0 6.03 0 3.06 0 0 Z " fill="#091339" transform="translate(308,131)"/>
<path d="M0 0 C0.66 0.66 1.32 1.32 2 2 C1.64700993 5.44165321 0.95418308 7.06872538 -1 10 C-3 8 -3 8 -3.3125 5.5625 C-2.95209822 2.60720543 -2.28773145 1.81112073 0 0 Z " fill="#0D1A3C" transform="translate(214,132)"/>
<path d="M0 0 C0.99 0.495 0.99 0.495 2 1 C4.37123246 1.23029956 6.74741943 1.41119942 9.125 1.5625 C10.40632813 1.64628906 11.68765625 1.73007813 13.0078125 1.81640625 C14.48894531 1.90728516 14.48894531 1.90728516 16 2 C16 2.33 16 2.66 16 3 C11.38 3 6.76 3 2 3 C1.67 4.65 1.34 6.3 1 8 C0.67 8 0.34 8 0 8 C0 5.36 0 2.72 0 0 Z " fill="#313E60" transform="translate(327,132)"/>
<path d="M0 0 C0.66 0 1.32 0 2 0 C1.125 3.875 1.125 3.875 0 5 C-2.67058851 5.14115161 -5.32432238 5.04247107 -8 5 C-8.33 4.01 -8.66 3.02 -9 2 C-6.03 2.33 -3.06 2.66 0 3 C0 2.01 0 1.02 0 0 Z " fill="#272F47" transform="translate(253,163)"/>
<path d="M0 0 C0 1.65 0 3.3 0 5 C-3.3 4.34 -6.6 3.68 -10 3 C-10 2.34 -10 1.68 -10 1 C-2.25 0 -2.25 0 0 0 Z " fill="#F8FCFE" transform="translate(173,158)"/>
<path d="M0 0 C2.64 0 5.28 0 8 0 C6.515 1.485 6.515 1.485 5 3 C6.32 3.66 7.64 4.32 9 5 C1.25 5.125 1.25 5.125 -1 4 C-0.67 2.68 -0.34 1.36 0 0 Z " fill="#3A4360" transform="translate(217,147)"/>
<path d="M0 0 C0.66 0 1.32 0 2 0 C2 3.63 2 7.26 2 11 C1.01 11 0.02 11 -1 11 C-0.67 7.37 -0.34 3.74 0 0 Z " fill="#0E1936" transform="translate(217,157)"/>
<path d="M0 0 C0.33 0 0.66 0 1 0 C1 3.63 1 7.26 1 11 C0.67 11 0.34 11 0 11 C-0.33 8.69 -0.66 6.38 -1 4 C-1.99 7.465 -1.99 7.465 -3 11 C-3.33 11 -3.66 11 -4 11 C-4 8.03 -4 5.06 -4 2 C-2.68 2 -1.36 2 0 2 C0 1.34 0 0.68 0 0 Z " fill="#E7EDEF" transform="translate(294,157)"/>
<path d="M0 0 C0.33 0.66 0.66 1.32 1 2 C0.07767578 2.09087891 0.07767578 2.09087891 -0.86328125 2.18359375 C-1.67152344 2.26738281 -2.47976563 2.35117188 -3.3125 2.4375 C-4.11300781 2.51871094 -4.91351563 2.59992188 -5.73828125 2.68359375 C-8.16087179 2.95265693 -8.16087179 2.95265693 -11 4 C-11.66 3.34 -12.32 2.68 -13 2 C-8.50343896 -0.24828052 -4.92127034 -0.16682272 0 0 Z " fill="#F1F2F4" transform="translate(287,128)"/>
<path d="M0 0 C0.99 0.33 1.98 0.66 3 1 C2.21718695 2.33855056 1.42348123 3.67073644 0.625 5 C0.18414062 5.7425 -0.25671875 6.485 -0.7109375 7.25 C-1.34902344 8.11625 -1.34902344 8.11625 -2 9 C-2.66 9 -3.32 9 -4 9 C-3.46930939 5.17902761 -2.50298434 2.93828597 0 0 Z " fill="#101D3C" transform="translate(212,26)"/>
<path d="M0 0 C6.0546875 -0.1953125 6.0546875 -0.1953125 8 0 C8.66 0.66 9.32 1.32 10 2 C9.34 3.32 8.68 4.64 8 6 C5.36 5.67 2.72 5.34 0 5 C0 4.67 0 4.34 0 4 C2.31 4 4.62 4 7 4 C7 3.01 7 2.02 7 1 C4.69 1 2.38 1 0 1 C0 0.67 0 0.34 0 0 Z " fill="#4B5671" transform="translate(105,138)"/>
<path d="M0 0 C0.66 0.33 1.32 0.66 2 1 C2 4.63 2 8.26 2 12 C1.01 12.495 1.01 12.495 0 13 C-0.19466332 11.20909747 -0.38051213 9.41723495 -0.5625 7.625 C-0.66691406 6.62726563 -0.77132812 5.62953125 -0.87890625 4.6015625 C-1 2 -1 2 0 0 Z " fill="#F0F3F3" transform="translate(182,133)"/>
<path d="M0 0 C2 4 2 4 1.4375 6.6875 C0.963125 7.450625 0.48875 8.21375 0 9 C-1.65 9.33 -3.3 9.66 -5 10 C-3.35 6.7 -1.7 3.4 0 0 Z " fill="#25304B" transform="translate(249,51)"/>
<path d="M0 0 C0.89203125 0.00902344 1.7840625 0.01804687 2.703125 0.02734375 C3.37859375 0.03894531 4.0540625 0.05054688 4.75 0.0625 C4.42 0.7225 4.09 1.3825 3.75 2.0625 C1.5703125 2.546875 1.5703125 2.546875 -1.125 2.8125 C-2.00929688 2.91046875 -2.89359375 3.0084375 -3.8046875 3.109375 C-6.25 3.0625 -6.25 3.0625 -9.25 1.0625 C-6.09493858 0.12630187 -3.28413498 -0.0432123 0 0 Z " fill="#242F4A" transform="translate(129.25,13.9375)"/>
<path d="M0 0 C0.66 0 1.32 0 2 0 C2 3.63 2 7.26 2 11 C1.01 11 0.02 11 -1 11 C-0.67 7.37 -0.34 3.74 0 0 Z " fill="#313953" transform="translate(155,157)"/>
<path d="M0 0 C5.625 -0.25 5.625 -0.25 9 2 C9 2.66 9 3.32 9 4 C6.36 3.67 3.72 3.34 1 3 C0.67 2.01 0.34 1.02 0 0 Z " fill="#474C64" transform="translate(246,156)"/>
<path d="M0 0 C0.33 0 0.66 0 1 0 C1 1.98 1 3.96 1 6 C-0.65 6.33 -2.3 6.66 -4 7 C-4.33 5.35 -4.66 3.7 -5 2 C-4.34 1.67 -3.68 1.34 -3 1 C-3 2.32 -3 3.64 -3 5 C-2.34 5 -1.68 5 -1 5 C-0.67 3.35 -0.34 1.7 0 0 Z " fill="#212C4E" transform="translate(306,144)"/>
<path d="M0 0 C0.99 0.33 1.98 0.66 3 1 C3 1.66 3 2.32 3 3 C3.66 3 4.32 3 5 3 C5 3.66 5 4.32 5 5 C3.02 5 1.04 5 -1 5 C-1.33 3.68 -1.66 2.36 -2 1 C-1.34 0.67 -0.68 0.34 0 0 Z " fill="#232E49" transform="translate(363,146)"/>
<path d="M0 0 C0.66 0 1.32 0 2 0 C2.3125 2.75 2.3125 2.75 2 6 C-0.5 8.375 -0.5 8.375 -3 10 C-3 8.68 -3 7.36 -3 6 C-2.34 6 -1.68 6 -1 6 C-0.67 4.02 -0.34 2.04 0 0 Z " fill="#BBC2CA" transform="translate(367,136)"/>
<path d="M0 0 C0.66 0 1.32 0 2 0 C1.6875 3.375 1.6875 3.375 1 7 C0.01 7.66 -0.98 8.32 -2 9 C-1.125 1.125 -1.125 1.125 0 0 Z " fill="#E5EAEC" transform="translate(266,81)"/>
<path d="M0 0 C2.475 0.495 2.475 0.495 5 1 C4.01 2.485 4.01 2.485 3 4 C2.29187186 6.32108669 1.61975848 8.65377147 1 11 C0.67 11 0.34 11 0 11 C0 7.37 0 3.74 0 0 Z " fill="#0D1A37" transform="translate(250,42)"/>
<path d="M0 0 C0.33 0 0.66 0 1 0 C1.33 1.65 1.66 3.3 2 5 C2.66 3.68 3.32 2.36 4 1 C4.33 2.65 4.66 4.3 5 6 C1.25 9 1.25 9 -1 9 C-0.67 6.03 -0.34 3.06 0 0 Z " fill="#BFC5CF" transform="translate(295,137)"/>
<path d="M0 0 C2.475 0.495 2.475 0.495 5 1 C4.67 2.32 4.34 3.64 4 5 C3.34 5 2.68 5 2 5 C1.67 5.99 1.34 6.98 1 8 C0.67 8 0.34 8 0 8 C0 5.33333333 0 2.66666667 0 0 Z " fill="#132142" transform="translate(113,140)"/>
<path d="M0 0 C0.598125 0.20625 1.19625 0.4125 1.8125 0.625 C0.8225 0.625 -0.1675 0.625 -1.1875 0.625 C-0.8575 1.945 -0.5275 3.265 -0.1875 4.625 C-1.5075 5.615 -2.8275 6.605 -4.1875 7.625 C-4.5175 5.645 -4.8475 3.665 -5.1875 1.625 C-2.1875 -0.375 -2.1875 -0.375 0 0 Z " fill="#293550" transform="translate(129.1875,130.375)"/>
<path d="M0 0 C1.65 0 3.3 0 5 0 C5 1.32 5 2.64 5 4 C3.35 4 1.7 4 0 4 C0 2.68 0 1.36 0 0 Z " fill="#A8ACBE" transform="translate(347,158)"/>
<path d="M0 0 C0.33 0 0.66 0 1 0 C1 3.63 1 7.26 1 11 C0.34 10.67 -0.32 10.34 -1 10 C-1.484375 8.22265625 -1.484375 8.22265625 -1.75 6.0625 C-1.84796875 5.35222656 -1.9459375 4.64195312 -2.046875 3.91015625 C-2 2 -2 2 0 0 Z " fill="#F7FAFC" transform="translate(138,158)"/>
<path d="M0 0 C3 3 3 3 3.07421875 5.04296875 C2.71614583 7.02864583 2.35807292 9.01432292 2 11 C1.34 11 0.68 11 0 11 C0 7.37 0 3.74 0 0 Z " fill="#0C1137" transform="translate(146,157)"/>
<path d="M0 0 C0.33 0.66 0.66 1.32 1 2 C1.99 2 2.98 2 4 2 C4 3.98 4 5.96 4 8 C3.01 7.01 2.02 6.02 1 5 C0.34 6.32 -0.32 7.64 -1 9 C-1.125 2.25 -1.125 2.25 0 0 Z " fill="#2F3A54" transform="translate(273,135)"/>
<path d="M0 0 C1.41687119 4.25061356 0.19320039 6.71851625 -1 11 C-2.74627478 8.38058783 -3.38722388 6.96175123 -4 4 C-3.01 4 -2.02 4 -1 4 C-0.67 2.68 -0.34 1.36 0 0 Z " fill="#D9E1E9" transform="translate(317,130)"/>
<path d="M0 0 C1.32 0 2.64 0 4 0 C4 3.63 4 7.26 4 11 C3.67 11 3.34 11 3 11 C3 8.36 3 5.72 3 3 C2.01 3 1.02 3 0 3 C0 2.01 0 1.02 0 0 Z " fill="#161E40" transform="translate(317,157)"/>
<path d="M0 0 C0.66 0.66 1.32 1.32 2 2 C4.57061311 2.64767793 4.57061311 2.64767793 7 3 C7 3.33 7 3.66 7 4 C4.36 4.66 1.72 5.32 -1 6 C-1.33 4.68 -1.66 3.36 -2 2 C-1.34 1.34 -0.68 0.68 0 0 Z " fill="#B6B9BD" transform="translate(332,153)"/>
<path d="M0 0 C0.66 0 1.32 0 2 0 C2.25 2.25 2.25 2.25 2 5 C0 7.3125 0 7.3125 -2 9 C-1.125 1.125 -1.125 1.125 0 0 Z " fill="#E0E6E9" transform="translate(262,52)"/>
<path d="M0 0 C2.64 0.33 5.28 0.66 8 1 C8 1.99 8 2.98 8 4 C5.69 3.67 3.38 3.34 1 3 C0.67 2.01 0.34 1.02 0 0 Z " fill="#4C536C" transform="translate(331,165)"/>
<path d="M0 0 C0.33 0.99 0.66 1.98 1 3 C-1.71182212 5.60334924 -2.89133813 5.99456691 -6.75 6.1875 C-7.8225 6.125625 -8.895 6.06375 -10 6 C-10 5.67 -10 5.34 -10 5 C-8.906875 4.690625 -7.81375 4.38125 -6.6875 4.0625 C-4.44592006 3.41662103 -2.2130649 2.7376883 0 2 C0 1.34 0 0.68 0 0 Z " fill="#E4E7EA" transform="translate(282,164)"/>
<path d="M0 0 C1.65 0 3.3 0 5 0 C5 2.97 5 5.94 5 9 C4.67 9 4.34 9 4 9 C3.67 6.69 3.34 4.38 3 2 C2.01 2 1.02 2 0 2 C0 1.34 0 0.68 0 0 Z " fill="#EDEEF3" transform="translate(281,159)"/>
<path d="M0 0 C0.99 0 1.98 0 3 0 C3 1.32 3 2.64 3 4 C2.34 4 1.68 4 1 4 C1 6.31 1 8.62 1 11 C0.67 11 0.34 11 0 11 C0 7.37 0 3.74 0 0 Z " fill="#091233" transform="translate(309,157)"/>
<path d="M0 0 C2.31 0 4.62 0 7 0 C7.66 1.32 8.32 2.64 9 4 C8.34 4 7.68 4 7 4 C6.67 4.99 6.34 5.98 6 7 C5.67 5.02 5.34 3.04 5 1 C3.35 1.33 1.7 1.66 0 2 C0 1.34 0 0.68 0 0 Z " fill="#B8BAC7" transform="translate(296,130)"/>
<path d="M0 0 C0.33 0 0.66 0 1 0 C1 2.31 1 4.62 1 7 C0.01 7.33 -0.98 7.66 -2 8 C-2.66 7.34 -3.32 6.68 -4 6 C-3.34 6 -2.68 6 -2 6 C-1.34 4.02 -0.68 2.04 0 0 Z " fill="#ABB3C1" transform="translate(318,161)"/>
<path d="M0 0 C0.99 0 1.98 0 3 0 C2.34 2.31 1.68 4.62 1 7 C0.34 7 -0.32 7 -1 7 C-1.04254356 5.00045254 -1.04080783 2.99958364 -1 1 C-0.67 0.67 -0.34 0.34 0 0 Z " fill="#ECF2F4" transform="translate(265,162)"/>
<path d="M0 0 C0.33 0 0.66 0 1 0 C1 3.63 1 7.26 1 11 C0.01 10.67 -0.98 10.34 -2 10 C-2 9.01 -2 8.02 -2 7 C-1.34 7 -0.68 7 0 7 C0 4.69 0 2.38 0 0 Z " fill="#080D2E" transform="translate(120,157)"/>
<path d="M0 0 C0.99 0 1.98 0 3 0 C3 3.63 3 7.26 3 11 C2.67 11 2.34 11 2 11 C1.34 7.37 0.68 3.74 0 0 Z " fill="#D1D6DE" transform="translate(356,157)"/>
<path d="M0 0 C0.33 0 0.66 0 1 0 C3 5.625 3 5.625 3 9 C0.525 8.01 0.525 8.01 -2 7 C-1.34 4.69 -0.68 2.38 0 0 Z " fill="#263455" transform="translate(214,139)"/>
<path d="M0 0 C0.99 0 1.98 0 3 0 C3.125 3.375 3.125 3.375 3 7 C2.34 7.66 1.68 8.32 1 9 C0.67 6.03 0.34 3.06 0 0 Z " fill="#F1F4F7" transform="translate(295,135)"/>
<path d="M0 0 C1.9375 0.8125 1.9375 0.8125 4 2 C4.33 2.99 4.66 3.98 5 5 C3.02 5 1.04 5 -1 5 C-1 4.34 -1 3.68 -1 3 C-0.34 2.67 0.32 2.34 1 2 C0.67 1.34 0.34 0.68 0 0 Z " fill="#1D263C" transform="translate(141,133)"/>
<path d="M0 0 C1.32 0 2.64 0 4 0 C3.67 1.65 3.34 3.3 3 5 C2.01 4.67 1.02 4.34 0 4 C0 2.68 0 1.36 0 0 Z " fill="#141A3F" transform="translate(297,131)"/>
<path d="M0 0 C2.97 0.33 5.94 0.66 9 1 C8.67 1.66 8.34 2.32 8 3 C5.36 2.67 2.72 2.34 0 2 C0 1.34 0 0.68 0 0 Z " fill="#253250" transform="translate(121,113)"/>
<path d="M0 0 C0.33 0 0.66 0 1 0 C1.1875 2.875 1.1875 2.875 1 6 C0.01 6.66 -0.98 7.32 -2 8 C-2 4.23312136 -1.76462683 3.08809695 0 0 Z " fill="#212C49" transform="translate(351,79)"/>
<path d="M0 0 C-2.31 1.65 -4.62 3.3 -7 5 C-7 2 -7 2 -6 0 C-3 -1 -3 -1 0 0 Z " fill="#1F2C49" transform="translate(231,26)"/>
<path d="M0 0 C0.99 0.33 1.98 0.66 3 1 C3.6875 3.0625 3.6875 3.0625 4 5 C2.68 5.33 1.36 5.66 0 6 C0 4.02 0 2.04 0 0 Z " fill="#E8EBEF" transform="translate(114,163)"/>
<path d="M0 0 C1.125 1.75 1.125 1.75 2 4 C1.3125 6.1875 1.3125 6.1875 0 8 C-0.99 8.33 -1.98 8.66 -3 9 C-3 8.34 -3 7.68 -3 7 C-2.34 7 -1.68 7 -1 7 C-0.67 4.69 -0.34 2.38 0 0 Z " fill="#F3F7F4" transform="translate(235,161)"/>
<path d="M0 0 C1.485 0.99 1.485 0.99 3 2 C3 2.66 3 3.32 3 4 C3.33 4.99 3.66 5.98 4 7 C2.68 6.67 1.36 6.34 0 6 C0 4.02 0 2.04 0 0 Z " fill="#2D3555" transform="translate(352,161)"/>
<path d="M0 0 C0.33 0 0.66 0 1 0 C1 2.64 1 5.28 1 8 C-0.5625 6.75 -0.5625 6.75 -2 5 C-1.74853421 2.86254078 -1.54074221 1.54074221 0 0 Z " fill="#FAFCFC" transform="translate(200,162)"/>
<path d="M0 0 C0.66 0.66 1.32 1.32 2 2 C1.625 4.125 1.625 4.125 1 6 C0.67 6 0.34 6 0 6 C-0.33 7.65 -0.66 9.3 -1 11 C-1.33 11 -1.66 11 -2 11 C-2 8.69 -2 6.38 -2 4 C-1.34 4 -0.68 4 0 4 C0 2.68 0 1.36 0 0 Z " fill="#303B54" transform="translate(312,157)"/>
<path d="M0 0 C1.98 0 3.96 0 6 0 C5.67 0.99 5.34 1.98 5 3 C3.35 3 1.7 3 0 3 C0 2.01 0 1.02 0 0 Z " fill="#DDE3E9" transform="translate(190,159)"/>
<path d="M0 0 C1.98 0 3.96 0 6 0 C5.34 1.32 4.68 2.64 4 4 C3.34 4 2.68 4 2 4 C2 3.34 2 2.68 2 2 C1.34 2 0.68 2 0 2 C0 1.34 0 0.68 0 0 Z " fill="#0E1C36" transform="translate(229,144)"/>
<path d="M0 0 C0.66 0.66 1.32 1.32 2 2 C1.625 4.625 1.625 4.625 1 7 C0.01 7.33 -0.98 7.66 -2 8 C-1.34 5.36 -0.68 2.72 0 0 Z " fill="#2C3653" transform="translate(307,131)"/>
<path d="M0 0 C0.99 0.33 1.98 0.66 3 1 C-2.75 6 -2.75 6 -5 6 C-5 5.34 -5 4.68 -5 4 C-2.6875 1.8125 -2.6875 1.8125 0 0 Z " fill="#111F3A" transform="translate(239,89)"/>
<path d="M0 0 C0.33 0.99 0.66 1.98 1 3 C-0.28965176 4.37562854 -1.62689293 5.70766393 -3 7 C-3.66 7 -4.32 7 -5 7 C-3.70700306 4.11562221 -2.34058637 2.12780579 0 0 Z " fill="#C5CFDA" transform="translate(347,83)"/>
</svg>
